<?xml version="1.0" standalone="no"?>
<!DOCTYPE svg PUBLIC "-//W3C//DTD SVG 20010904//EN"
 "http://www.w3.org/TR/2001/REC-SVG-20010904/DTD/svg10.dtd">
<svg version="1.0" xmlns="http://www.w3.org/2000/svg"
 width="512.000000pt" height="512.000000pt" viewBox="0 0 512.000000 512.000000"
 preserveAspectRatio="xMidYMid meet">

<g transform="translate(0.000000,512.000000) scale(0.100000,-0.100000)"
fill="#000000" stroke="none">
<path d="M0 2560 l0 -2560 2560 0 2560 0 0 2560 0 2560 -2560 0 -2560 0 0
-2560z m1076 2424 c44 -9 113 -31 154 -51 72 -33 91 -50 412 -375 l337 -341
79 47 c86 50 146 60 200 32 36 -19 232 -219 232 -237 0 -13 25 -14 155 -11
167 5 260 -5 421 -43 l102 -24 333 161 c184 88 543 262 799 385 256 124 481
232 500 240 l35 15 -41 -44 c-22 -23 -92 -97 -155 -163 -63 -66 -221 -230
-350 -365 -128 -135 -278 -291 -333 -347 -64 -67 -94 -104 -85 -107 8 -3 205
-16 439 -31 233 -14 426 -28 429 -31 3 -2 -2 -11 -10 -18 -8 -7 -93 -84 -189
-171 -96 -88 -230 -210 -297 -272 l-121 -114 25 -61 c36 -89 80 -264 94 -375
16 -132 6 -390 -20 -511 -37 -169 -105 -344 -188 -485 l-28 -47 314 -307 c331
-325 415 -400 521 -468 82 -54 131 -105 165 -174 166 -331 -190 -693 -520
-528 -71 35 -115 78 -177 171 -34 50 -100 129 -147 175 -416 409 -554 543
-602 589 l-55 53 -100 -50 c-335 -168 -705 -214 -1060 -131 l-83 19 -243 -115
c-134 -64 -331 -158 -438 -209 -107 -51 -305 -145 -440 -210 -458 -218 -562
-267 -565 -263 -4 3 197 219 659 707 245 259 301 320 295 325 -2 1 -125 15
-274 30 -514 51 -676 69 -673 77 2 4 155 127 341 274 265 209 337 271 331 284
-28 65 -67 193 -85 277 -29 132 -37 417 -16 554 l14 95 -67 75 c-94 104 -90
101 -240 165 -74 32 -136 59 -138 60 -2 2 2 12 10 24 12 19 7 27 -58 93 -64
65 -73 80 -87 137 l-15 63 35 -5 35 -6 -7 35 -6 35 36 -7 36 -6 -6 36 c-7 36
-7 36 20 26 42 -16 46 -13 39 26 l-7 36 33 -7 33 -7 -7 36 -7 37 37 -7 36 -7
-7 33 -7 33 35 -7 36 -7 -6 36 c-6 35 -6 35 27 29 31 -7 32 -6 28 27 -3 35 0
37 40 24 22 -6 23 -5 16 31 l-7 37 36 -7 36 -7 -6 36 c-6 39 -6 39 33 25 26
-10 27 -10 21 26 l-6 36 35 -5 35 -6 -7 35 -6 35 35 -6 36 -7 -6 36 -6 35 31
-8 c38 -11 43 -6 31 26 -5 14 -7 28 -4 31 2 3 33 -3 68 -12 56 -15 72 -26 133
-87 67 -68 84 -79 84 -58 0 17 -362 375 -397 393 -18 9 -42 16 -53 16 -19 0
-21 -4 -15 -29 6 -30 6 -30 -29 -24 l-36 6 7 -33 6 -33 -36 7 c-21 4 -37 6
-37 4 0 -2 4 -18 9 -36 l10 -33 -36 7 -36 7 6 -36 5 -35 -34 5 c-34 6 -34 6
-27 -27 l6 -33 -36 6 c-21 3 -37 5 -37 4 0 -1 4 -17 9 -35 l10 -32 -39 6 -39
6 9 -33 c6 -19 10 -35 10 -35 0 -1 -16 2 -36 6 l-36 8 7 -35 6 -36 -35 6 c-34
5 -34 5 -29 -28 l5 -34 -35 6 -36 6 9 -33 9 -33 -35 6 -36 6 7 -35 6 -35 -35
6 -35 7 6 -36 5 -35 -35 6 -36 6 9 -33 9 -32 -36 7 -36 6 6 -35 c3 -20 3 -36
1 -36 -3 0 -39 10 -80 22 -67 19 -77 26 -113 72 -119 154 -159 345 -111 531
32 126 76 192 239 359 274 280 364 345 526 379 92 20 127 20 221 1z"/>
<path d="M2525 3625 c-196 -36 -383 -119 -521 -229 -243 -196 -383 -428 -435
-721 -24 -139 -24 -241 0 -380 49 -276 178 -500 399 -690 155 -135 346 -224
551 -259 486 -83 989 184 1213 644 131 270 146 609 40 896 -100 268 -318 508
-577 634 -161 78 -287 110 -460 115 -89 3 -155 0 -210 -10z"/>
<path d="M4581 642 c-94 -51 -93 -193 1 -253 25 -15 45 -19 86 -16 56 4 91 27
118 79 31 60 3 156 -56 191 -37 22 -107 22 -149 -1z"/>
</g>
</svg>
