<?xml version="1.0" encoding="UTF-8"?>
<svg version="1.1" xmlns="http://www.w3.org/2000/svg" width="512" height="512">
<path d="M0 0 C1.13373047 -0.020625 2.26746094 -0.04125 3.43554688 -0.0625 C20.74097456 -0.14229448 33.1352662 7.30491451 45.3125 19.25 C46.97934394 20.91648937 48.64598377 22.58318291 50.3125 24.25 C51.66950412 25.59895546 53.02652905 26.94789026 54.38426208 28.29611206 C56.46274944 30.36102507 58.53840536 32.42877558 60.61401367 34.49658203 C61.70198192 35.57951715 62.79084541 36.66155363 63.88061523 37.74267578 C69.58706797 43.40519959 75.13178073 49.09485077 80.3125 55.25 C81.59070589 56.45414163 82.89791179 57.62945333 84.25 58.75 C90.16378369 63.79477349 95.43996783 69.1962479 100.3125 75.25 C104.4103328 74.65286589 107.40963407 73.28764287 111 71.25 C111.95261719 70.71375 112.90523437 70.1775 113.88671875 69.625 C115.08748047 68.944375 115.08748047 68.944375 116.3125 68.25 C119.44106476 66.68571762 121.83962131 66.96992914 125.3125 67.25 C132.7930062 70.20346847 137.66886327 75.00292907 143.25 80.6875 C144.11173828 81.53376953 144.97347656 82.38003906 145.86132812 83.25195312 C146.67923828 84.07501953 147.49714844 84.89808594 148.33984375 85.74609375 C149.07968506 86.49044678 149.81952637 87.2347998 150.58178711 88.00170898 C152.48391866 90.47268224 152.96450878 92.18288434 153.3125 95.25 C154.18455078 95.08918945 155.05660156 94.92837891 155.95507812 94.76269531 C174.40735162 91.94493976 194.98768539 93.92934566 213.0546875 98.4140625 C220.46531682 100.06410122 225.97967903 97.31190929 232.625 94.25 C233.50655762 93.84918213 234.38811523 93.44836426 235.29638672 93.03540039 C241.67666223 90.09767418 247.87404681 86.89289051 254.04541016 83.54345703 C258.77597563 80.99892807 263.56667128 78.74634271 268.5 76.625 C278.31429991 72.40127857 287.8150019 67.55733019 297.32885742 62.70458984 C304.52718634 59.04812151 311.76805695 55.70272415 319.21386719 52.57226562 C322.99255564 50.95980292 326.6602103 49.1901381 330.3125 47.3125 C331.66275908 46.6289036 333.01301952 45.9453099 334.36328125 45.26171875 C335.02279785 44.92575684 335.68231445 44.58979492 336.36181641 44.24365234 C344.6995545 39.99651917 353.06748221 35.86031396 361.59765625 32.01171875 C364.59245781 30.6251585 367.51170516 29.11595593 370.43359375 27.58203125 C371.33126465 27.11579346 372.22893555 26.64955566 373.15380859 26.16918945 C374.94626582 25.23436495 376.73201955 24.28655521 378.51025391 23.32495117 C379.33315918 22.89802979 380.15606445 22.4711084 381.00390625 22.03125 C381.73810791 21.64001953 382.47230957 21.24878906 383.22875977 20.84570312 C385.3125 20.25 385.3125 20.25 387.58178711 21.13867188 C388.15292236 21.50541016 388.72405762 21.87214844 389.3125 22.25 C388.3125 25.25 388.3125 25.25 386.1875 26.9375 C383.84833558 28.81900181 382.22020467 30.44213954 380.3203125 32.70703125 C375.15693972 38.68179118 369.47443848 44.14664108 363.85546875 49.68652344 C358.66304477 54.8124676 353.57370063 59.96391486 348.828125 65.51171875 C346.60828755 68.05766634 344.22944746 70.38992189 341.8125 72.75 C338.77804119 75.73944324 335.8107886 78.7417197 333.0625 82 C329.53618427 86.14256508 325.67488848 89.92492027 321.8125 93.75 C317.4355862 98.08471651 313.17740163 102.41865242 309.20703125 107.1328125 C304.49261486 112.40129432 299.34391734 117.28667703 294.3125 122.25 C296.6115325 123.39951625 298.1393744 123.46338223 300.70092773 123.60717773 C301.61553268 123.66077957 302.53013763 123.71438141 303.47245789 123.76960754 C304.47025772 123.82372299 305.46805756 123.87783844 306.49609375 123.93359375 C308.0488073 124.02328682 308.0488073 124.02328682 309.63288879 124.11479187 C311.85358555 124.24281708 314.07439049 124.3689766 316.29528809 124.49346924 C322.0242555 124.8152315 327.75233358 125.15207744 333.48046875 125.48828125 C334.60139923 125.55380188 335.72232971 125.61932251 336.87722778 125.68682861 C345.44371593 126.19058626 354.00456968 126.74165248 362.5625 127.375 C363.60462646 127.45032959 364.64675293 127.52565918 365.72045898 127.60327148 C370.30209296 127.95124864 374.79236583 128.38541058 379.3125 129.25 C378.857701 133.88732552 377.32388914 135.59841071 373.8125 138.5625 C372.9153125 139.33078125 372.018125 140.0990625 371.09375 140.890625 C370.1759375 141.66921875 369.258125 142.4478125 368.3125 143.25 C365.91191185 145.43366753 363.51790792 147.62433167 361.125 149.81640625 C359.3125 151.25 359.3125 151.25 357.3125 151.25 C357.07273437 151.82621094 356.83296875 152.40242187 356.5859375 152.99609375 C355.05401671 155.70749956 353.29176948 157.27441882 350.9375 159.3125 C346.97524545 162.78806144 343.05994291 166.30043731 339.1875 169.875 C332.3579364 176.15391448 325.35771721 182.21597579 318.3125 188.25 C318.5391333 188.90895264 318.7657666 189.56790527 318.99926758 190.24682617 C335.72313265 239.07130403 334.06716328 281.39134577 311.40234375 328.234375 C310.06760843 330.92277806 308.71377432 333.59582159 307.3125 336.25 C307.71041748 336.64791748 308.10833496 337.04583496 308.51831055 337.45581055 C311.59944661 340.53694661 314.68058268 343.61808268 317.76171875 346.69921875 C318.36806152 347.30491699 318.9744043 347.91061523 319.59912109 348.53466797 C321.09811393 350.03536954 322.59062156 351.54254324 324.08203125 353.05078125 C326.37490353 355.37275274 326.37490353 355.37275274 329.3125 357.75 C332.16007393 360.12297827 334.7045498 362.6189365 337.3125 365.25 C338.19550781 366.10980469 339.07851563 366.96960938 339.98828125 367.85546875 C340.85839844 368.70753906 341.72851562 369.55960937 342.625 370.4375 C343.50800781 371.29730469 344.39101563 372.15710938 345.30078125 373.04296875 C347.3125 375.25 347.3125 375.25 347.3125 377.25 C348.3025 377.58 349.2925 377.91 350.3125 378.25 C350.3125 378.91 350.3125 379.57 350.3125 380.25 C350.88097656 380.49105469 351.44945312 380.73210937 352.03515625 380.98046875 C354.76038908 382.49968088 356.57940339 384.32418981 358.75 386.5625 C359.54019531 387.36945313 360.33039063 388.17640625 361.14453125 389.0078125 C361.85996094 389.74773437 362.57539063 390.48765625 363.3125 391.25 C369.1594601 397.23617344 375.30166843 402.30387101 382.125 407.125 C406.86872987 424.62802292 406.86872987 424.62802292 409.3125 437.25 C409.58276764 440.80895885 409.58962509 444.36935064 409.625 447.9375 C409.66850586 449.37125977 409.66850586 449.37125977 409.71289062 450.83398438 C409.80433245 461.15284265 405.95655305 469.08994105 399.0625 476.75 C395.65931449 479.84380501 392.15008207 482.71011747 388.3125 485.25 C387.50167969 485.79398437 386.69085938 486.33796875 385.85546875 486.8984375 C380.47201441 488.95210365 375.27565238 488.76286746 369.5625 488.75 C368.43328125 488.77835937 367.3040625 488.80671875 366.140625 488.8359375 C355.37169016 488.86086559 347.598192 485.25779578 339.7421875 477.9609375 C335.3780826 473.0916629 331.77078981 467.6799666 328.109375 462.2734375 C324.14043651 456.49282708 319.8440862 451.74166231 314.52490234 447.20019531 C310.36967794 443.53743515 306.52012963 439.56009545 302.625 435.625 C301.79677734 434.79226563 300.96855469 433.95953125 300.11523438 433.1015625 C298.52686798 431.50429413 296.93949513 429.90603695 295.35327148 428.30664062 C293.77806605 426.71918632 292.19852923 425.13602923 290.6171875 423.5546875 C288.8286044 421.7661044 287.04716486 419.9712913 285.26953125 418.171875 C284.22137692 417.11456077 283.17319962 416.05726933 282.125 415 C281.59197266 414.45859375 281.05894531 413.9171875 280.50976562 413.359375 C277.68742463 410.44242899 277.68742463 410.44242899 274.3125 408.25 C274.3125 407.59 274.3125 406.93 274.3125 406.25 C273.69375 406.0025 273.075 405.755 272.4375 405.5 C269.90891373 404.01259631 269.59410996 402.81321991 268.3125 400.25 C266.98729497 399.56731862 265.65437818 398.8992959 264.3125 398.25 C263.9825 397.26 263.6525 396.27 263.3125 395.25 C262.735 394.96125 262.1575 394.6725 261.5625 394.375 C258.55219997 392.86984999 256.61102456 390.67622037 254.3125 388.25 C251.12446296 389.48577518 247.99043426 390.82248921 244.86328125 392.203125 C208.13331795 408.37263892 173.61828285 413.86133677 133.8984375 404.59545898 C129.64402013 404.02710546 126.28096475 405.08795956 122.4765625 406.9296875 C121.75404297 407.27580078 121.03152344 407.62191406 120.28710938 407.97851562 C119.51173828 408.35685547 118.73636719 408.73519531 117.9375 409.125 C117.11314453 409.52138672 116.28878906 409.91777344 115.43945312 410.32617188 C113.65940967 411.1823449 111.88047582 412.04082791 110.10253906 412.90136719 C106.31587614 414.73174223 102.52099434 416.5447318 98.72607422 418.35791016 C95.79583943 419.75796033 92.86667344 421.16023092 89.9375 422.5625 C84.13773592 425.33630021 78.32769878 428.08805228 72.515625 430.8359375 C66.27282175 433.78974709 60.04154846 436.76730749 53.8125 439.75 C46.05867506 443.46281036 38.29675879 447.15767537 30.52441406 450.83154297 C24.19423775 453.82619306 17.87771935 456.8489574 11.5625 459.875 C4.18044682 463.41142862 -3.21417547 466.91374041 -10.64453125 470.34765625 C-13.97384512 471.89971299 -17.27434203 473.50746083 -20.57421875 475.12109375 C-21.61320312 475.62640625 -22.6521875 476.13171875 -23.72265625 476.65234375 C-25.79222411 477.66020022 -27.85875078 478.67433051 -29.921875 479.6953125 C-31.34306641 480.38560547 -31.34306641 480.38560547 -32.79296875 481.08984375 C-33.64012451 481.50613037 -34.48728027 481.92241699 -35.36010742 482.35131836 C-37.6875 483.25 -37.6875 483.25 -41.6875 483.25 C-41.09756929 479.71828151 -39.78624127 477.91994505 -37.375 475.3125 C-35.36090506 473.09740576 -33.42091993 470.91285462 -31.5625 468.5625 C-26.24800955 462.00796178 -26.24800955 462.00796178 -22.5 460.1875 C-20.11611102 458.95445398 -19.86454378 457.63404868 -18.6875 455.25 C-17.72869966 453.96812563 -16.72756043 452.7168707 -15.6875 451.5 C-15.171875 450.88640625 -14.65625 450.2728125 -14.125 449.640625 C-12.6875 448.25 -12.6875 448.25 -10.6875 448.25 C-10.419375 447.610625 -10.15125 446.97125 -9.875 446.3125 C-8.6875 444.25 -8.6875 444.25 -5.6875 443.25 C-4.99611557 441.92931465 -4.3328131 440.59379806 -3.6875 439.25 C-2.50486003 437.95589282 -1.27043368 436.70803517 0 435.5 C2.67180255 432.9000201 5.21053704 430.27770159 7.625 427.4375 C10.53500413 424.04804439 13.63409176 420.88547854 16.8125 417.75 C20.57466622 414.03857957 24.14059836 410.2314158 27.5703125 406.2109375 C30.28050484 403.16045196 33.21323833 400.34113608 36.1171875 397.4765625 C38.74490687 394.81143787 41.17660916 392.01389117 43.609375 389.171875 C45.92953975 386.55370744 48.41218395 384.12250202 50.9296875 381.6953125 C52.42104485 380.27890223 52.42104485 380.27890223 53.3125 378.25 C52.70913818 378.27030273 52.10577637 378.29060547 51.48413086 378.31152344 C43.6356367 378.4535514 35.96140753 377.67812499 28.17861938 376.76870728 C10.5659715 374.71426779 -7.07597119 373.07711876 -24.74194336 371.55761719 C-25.65840637 371.47728745 -26.57486938 371.3969577 -27.519104 371.31419373 C-29.24491361 371.16293337 -30.97102171 371.01502943 -32.69744873 370.87098694 C-38.46194367 370.36277816 -38.46194367 370.36277816 -40.6875 369.25 C-40.17452755 364.6791858 -40.17452755 364.6791858 -38.04296875 362.80078125 C-37.32753906 362.39214844 -36.61210938 361.98351562 -35.875 361.5625 C-31.41183377 358.8029398 -27.48536842 355.67155275 -23.48754883 352.27905273 C-19.57849743 348.97309458 -15.59730224 345.77611333 -11.5625 342.625 C-10.96445557 342.15787598 -10.36641113 341.69075195 -9.75024414 341.20947266 C-8.58775368 340.301562 -7.4252383 339.39368324 -6.26269531 338.48583984 C-4.14012308 336.82054836 -2.03816745 335.1303059 0.0625 333.4375 C4.92287504 329.53780211 9.83424433 325.70445712 14.75 321.875 C15.94157715 320.94530396 15.94157715 320.94530396 17.15722656 319.99682617 C17.90842773 319.41263916 18.65962891 318.82845215 19.43359375 318.2265625 C20.44570923 317.43886475 20.44570923 317.43886475 21.47827148 316.63525391 C23.04810481 315.44967766 24.67567123 314.34121918 26.3125 313.25 C25.91735063 311.79148119 25.52129943 310.33320674 25.125 308.875 C24.85300781 307.86695313 24.58101563 306.85890625 24.30078125 305.8203125 C23.59305138 303.26353343 22.86301329 300.72147225 22.10546875 298.1796875 C15.51495301 275.83317106 12.58247163 252.57779355 16.49389648 229.39013672 C17.70208729 222.63930518 17.70208729 222.63930518 15.72265625 216.18359375 C13.40437228 213.52450222 11.07521374 211.44256922 8.3125 209.25 C7.76021729 208.71665039 7.20793457 208.18330078 6.63891602 207.63378906 C1.06944674 202.33449953 -4.99187931 199.41425767 -12 196.375 C-13.62518555 195.64796875 -13.62518555 195.64796875 -15.28320312 194.90625 C-20.91222167 192.39189101 -20.91222167 192.39189101 -26.6875 190.25 C-26.41550781 189.36441406 -26.14351563 188.47882813 -25.86328125 187.56640625 C-25.29833467 184.11549185 -25.29833467 184.11549185 -27.85546875 181.71484375 C-28.85191406 180.88082031 -29.84835938 180.04679688 -30.875 179.1875 C-36.80709467 173.84186952 -39.61951762 168.30258715 -40.6875 160.25 C-40.265625 157.3671875 -40.265625 157.3671875 -39.6875 155.25 C-38.0375 155.58 -36.3875 155.91 -34.6875 156.25 C-34.6875 154.27 -34.6875 152.29 -34.6875 150.25 C-33.0375 149.92 -31.3875 149.59 -29.6875 149.25 C-29.6875 147.6 -29.6875 145.95 -29.6875 144.25 C-27.7075 144.25 -25.7275 144.25 -23.6875 144.25 C-23.6875 142.6 -23.6875 140.95 -23.6875 139.25 C-21.61196352 138.6965236 -19.84384036 138.25 -17.6875 138.25 C-17.6875 136.6 -17.6875 134.95 -17.6875 133.25 C-16.0375 133.25 -14.3875 133.25 -12.6875 133.25 C-12.6875 131.6 -12.6875 129.95 -12.6875 128.25 C-10.61196352 127.6965236 -8.84384036 127.25 -6.6875 127.25 C-6.6875 125.6 -6.6875 123.95 -6.6875 122.25 C-3.6875 121.25 -3.6875 121.25 -0.6875 122.25 C-0.6875 120.27 -0.6875 118.29 -0.6875 116.25 C1.2925 116.58 3.2725 116.91 5.3125 117.25 C4.9825 115.27 4.6525 113.29 4.3125 111.25 C7.3125 110.25 7.3125 110.25 10.3125 111.25 C10.3125 109.27 10.3125 107.29 10.3125 105.25 C12.2925 105.25 14.2725 105.25 16.3125 105.25 C16.3125 103.27 16.3125 101.29 16.3125 99.25 C17.9625 99.25 19.6125 99.25 21.3125 99.25 C21.3125 97.6 21.3125 95.95 21.3125 94.25 C23.2925 94.25 25.2725 94.25 27.3125 94.25 C27.10625 93.63125 26.9 93.0125 26.6875 92.375 C26.56375 91.67375 26.44 90.9725 26.3125 90.25 C26.9725 89.59 27.6325 88.93 28.3125 88.25 C29.6325 88.25 30.9525 88.25 32.3125 88.25 C32.291875 87.445625 32.27125 86.64125 32.25 85.8125 C32.3125 83.25 32.3125 83.25 33.3125 82.25 C35.34511719 82.47584635 37.37791981 82.70584059 39.40234375 82.99609375 C41.32176739 83.29392179 41.32176739 83.29392179 43.3125 83.25 C32.50575535 70.1058269 32.50575535 70.1058269 18.3125 61.25 C18.8075 63.725 18.8075 63.725 19.3125 66.25 C17.23696352 66.8034764 15.46884036 67.25 13.3125 67.25 C13.3125 68.9 13.3125 70.55 13.3125 72.25 C11.3325 72.25 9.3525 72.25 7.3125 72.25 C7.5909375 73.178125 7.5909375 73.178125 7.875 74.125 C8.3125 76.25 8.3125 76.25 7.3125 78.25 C5.6625 78.25 4.0125 78.25 2.3125 78.25 C2.3125 79.9 2.3125 81.55 2.3125 83.25 C-2.4375 84.375 -2.4375 84.375 -4.6875 83.25 C-4.3575 85.23 -4.0275 87.21 -3.6875 89.25 C-5.6675 89.25 -7.6475 89.25 -9.6875 89.25 C-9.6875 91.23 -9.6875 93.21 -9.6875 95.25 C-11.6675 94.92 -13.6475 94.59 -15.6875 94.25 C-15.6875 96.23 -15.6875 98.21 -15.6875 100.25 C-19.4375 101.375 -19.4375 101.375 -21.6875 100.25 C-21.501875 101.054375 -21.31625 101.85875 -21.125 102.6875 C-20.9084375 103.9559375 -20.9084375 103.9559375 -20.6875 105.25 C-21.6875 106.25 -21.6875 106.25 -24.25 106.3125 C-25.054375 106.291875 -25.85875 106.27125 -26.6875 106.25 C-26.6875 107.9 -26.6875 109.55 -26.6875 111.25 C-28.6675 111.25 -30.6475 111.25 -32.6875 111.25 C-32.501875 112.054375 -32.31625 112.85875 -32.125 113.6875 C-31.980625 114.533125 -31.83625 115.37875 -31.6875 116.25 C-32.6875 117.25 -32.6875 117.25 -35.75 117.3125 C-36.719375 117.291875 -37.68875 117.27125 -38.6875 117.25 C-38.3575 119.23 -38.0275 121.21 -37.6875 123.25 C-39.9975 123.25 -42.3075 123.25 -44.6875 123.25 C-44.3575 124.9 -44.0275 126.55 -43.6875 128.25 C-45.6675 128.25 -47.6475 128.25 -49.6875 128.25 C-49.3575 130.23 -49.0275 132.21 -48.6875 134.25 C-50.6675 134.25 -52.6475 134.25 -54.6875 134.25 C-55.1825 137.22 -55.1825 137.22 -55.6875 140.25 C-66.04961021 139.30798998 -72.64022871 137.50985858 -79.54296875 129.27734375 C-87.81538343 117.59952703 -91.04817382 106.336575 -91.0625 92.125 C-91.08699219 90.86945313 -91.11148438 89.61390625 -91.13671875 88.3203125 C-91.19785902 68.67390429 -81.8138448 55.7783768 -68.6875 42.25 C-67.95917969 41.47527344 -67.23085937 40.70054688 -66.48046875 39.90234375 C-64.6875 38.25 -64.6875 38.25 -62.6875 38.25 C-62.460625 37.693125 -62.23375 37.13625 -62 36.5625 C-59.73149551 32.56561114 -57.06850054 29.71033351 -52.6875 28.25 C-52.41808594 27.68925781 -52.14867187 27.12851562 -51.87109375 26.55078125 C-50.15110022 23.20729548 -47.49294729 20.9391184 -44.75 18.4375 C-44.17024414 17.90705078 -43.59048828 17.37660156 -42.99316406 16.83007812 C-29.79687174 5.01185679 -17.50293117 0.07826912 0 0 Z M117.3125 152.875 C116.6424292 153.30449951 115.9723584 153.73399902 115.28198242 154.17651367 C106.87630437 159.67926685 99.34513326 166.07451638 92.3125 173.25 C91.45011719 174.1265625 90.58773437 175.003125 89.69921875 175.90625 C78.92624541 187.25606852 72.12795315 199.82767619 66.3125 214.25 C65.98378906 215.03632813 65.65507812 215.82265625 65.31640625 216.6328125 C56.03313244 241.1637433 58.41462153 270.9904568 68.6796875 294.71875 C69.21851563 295.8840625 69.75734375 297.049375 70.3125 298.25 C70.72870605 299.16652344 70.72870605 299.16652344 71.15332031 300.1015625 C74.71867477 307.89237133 78.73946823 314.72998822 84.3125 321.25 C85.1375 322.27996094 85.9625 323.30992187 86.8125 324.37109375 C102.82317091 344.20443162 125.32115121 358.20610709 150.3125 363.25 C151.87871094 363.58837891 151.87871094 363.58837891 153.4765625 363.93359375 C184.3666905 369.72050403 213.72175546 361.49896956 239.3125 344.25 C250.93143161 336.24353143 261.09234634 325.37406755 268.3125 313.25 C268.6513623 312.6921582 268.99022461 312.13431641 269.33935547 311.55957031 C279.29806186 295.06397768 285.3359751 278.95795041 286 259.5625 C286.05534912 257.97659058 286.05534912 257.97659058 286.11181641 256.35864258 C286.75465302 234.79064994 283.13706802 216.02631137 272.3125 197.25 C271.96703125 196.64317383 271.6215625 196.03634766 271.265625 195.41113281 C263.79606784 182.4996688 253.8201276 171.70503369 242.3125 162.25 C241.70535156 161.74339844 241.09820312 161.23679688 240.47265625 160.71484375 C207.1658689 134.30882841 153.53650557 129.06875619 117.3125 152.875 Z M358 440.25 C355.43558248 444.80896448 355.54384869 449.1384688 356.3125 454.25 C358.42864162 457.95324783 360.44025347 459.62840939 364.3125 461.25 C368.36892561 461.8859083 372.49785769 462.17954126 376.2265625 460.26953125 C380.4378613 456.89841768 382.09360247 454.18359481 382.6875 448.9375 C382.13346716 443.48951043 380.30390065 439.96481723 376.0625 436.3125 C368.76049737 433.49127171 363.75763065 435.27042755 358 440.25 Z " fill="#FCFCFC" transform="translate(96.6875,11.75)"/>
<path d="M0 0 C15.69137234 23.53705851 14.14488322 61.54858955 9 88 C4.85611479 106.99280719 -2.9512623 124.86062624 -12 142 C-11.40312378 142.59687622 -11.40312378 142.59687622 -10.79418945 143.20581055 C-7.71305339 146.28694661 -4.63191732 149.36808268 -1.55078125 152.44921875 C-0.94443848 153.05491699 -0.3380957 153.66061523 0.28662109 154.28466797 C1.78561393 155.78536954 3.27812156 157.29254324 4.76953125 158.80078125 C7.06240353 161.12275274 7.06240353 161.12275274 10 163.5 C12.84757393 165.87297827 15.3920498 168.3689365 18 171 C18.88300781 171.85980469 19.76601563 172.71960938 20.67578125 173.60546875 C21.54589844 174.45753906 22.41601562 175.30960938 23.3125 176.1875 C24.19550781 177.04730469 25.07851563 177.90710938 25.98828125 178.79296875 C28 181 28 181 28 183 C28.99 183.33 29.98 183.66 31 184 C31 184.66 31 185.32 31 186 C31.56847656 186.24105469 32.13695312 186.48210937 32.72265625 186.73046875 C35.44788908 188.24968088 37.26690339 190.07418981 39.4375 192.3125 C40.22253906 193.11429688 41.00757813 193.91609375 41.81640625 194.7421875 C42.53699219 195.48726562 43.25757813 196.23234375 44 197 C46.55808655 199.62722402 48.92508229 201.95005486 52 204 C51.67 204.66 51.34 205.32 51 206 C44.59906219 202.7995311 39.70662468 197.23213682 35.3125 191.6875 C33.22623474 188.96299275 33.22623474 188.96299275 30.72265625 187.6875 C27.41039791 185.63456513 24.82715538 183.08344224 22.125 180.3125 C21.59471191 179.7764917 21.06442383 179.2404834 20.51806641 178.68823242 C17.69567044 175.81360184 14.97940138 172.88817401 12.375 169.8125 C9.00509615 165.83667748 5.17421092 162.47959825 1.234375 159.078125 C-0.81627175 157.17088012 -2.34249156 155.2405274 -4 153 C-4.7425 152.566875 -5.485 152.13375 -6.25 151.6875 C-10.06861027 149.34426188 -12.92691972 146.23249078 -16 143 C-14.6672829 139.40550821 -13.04585258 136.3000617 -11 133.0625 C-8.78890917 129.45464691 -7.08535843 126.12436204 -6 122 C-5.34 122 -4.68 122 -4 122 C-3.85498047 120.56333984 -3.85498047 120.56333984 -3.70703125 119.09765625 C-3.15152609 115.21495731 -1.95323934 111.71948638 -0.62524414 108.03979492 C9.46390027 80.04182817 12.0703806 48.89629565 4 20 C3.71189453 18.96842773 3.71189453 18.96842773 3.41796875 17.91601562 C2.56590331 14.91060115 1.68490023 11.92118765 0.734375 8.9453125 C-0.03637027 5.854132 -0.1325932 3.17276595 0 0 Z " fill="#333333" transform="translate(416,206)"/>
<path d="M0 0 C11.43233927 0.23817373 19.45942954 12.37852151 26.93359375 19.97265625 C31.25250728 24.33356894 35.62614203 28.54365829 40.29101562 32.53417969 C42.68846044 34.59050236 44.89908552 36.63647121 47 39 C47 39.99 47 40.98 47 42 C43.24008935 40.47732125 41.27676238 38.20580292 38.625 35.1875 C32.79612665 29.15793191 26.94284384 27.17455379 19 25 C19 26.98 19 28.96 19 31 C18.34 31 17.68 31 17 31 C16.61936779 28.6739143 16.28730055 26.33944736 16 24 C16.495 23.505 16.495 23.505 17 23 C19.03261719 23.22584635 21.06541981 23.45584059 23.08984375 23.74609375 C25.00926739 24.04392179 25.00926739 24.04392179 27 24 C16.19325535 10.8558269 16.19325535 10.8558269 2 2 C2.495 4.475 2.495 4.475 3 7 C0.92446352 7.5534764 -0.84365964 8 -3 8 C-3 9.65 -3 11.3 -3 13 C-4.98 13 -6.96 13 -9 13 C-8.814375 13.61875 -8.62875 14.2375 -8.4375 14.875 C-8 17 -8 17 -9 19 C-10.65 19 -12.3 19 -14 19 C-14 20.65 -14 22.3 -14 24 C-18.75 25.125 -18.75 25.125 -21 24 C-20.505 26.97 -20.505 26.97 -20 30 C-21.98 30 -23.96 30 -26 30 C-26 31.98 -26 33.96 -26 36 C-28.97 35.505 -28.97 35.505 -32 35 C-32 36.98 -32 38.96 -32 41 C-35.75 42.125 -35.75 42.125 -38 41 C-37.814375 41.804375 -37.62875 42.60875 -37.4375 43.4375 C-37.293125 44.283125 -37.14875 45.12875 -37 46 C-38 47 -38 47 -40.5625 47.0625 C-41.366875 47.041875 -42.17125 47.02125 -43 47 C-43 48.65 -43 50.3 -43 52 C-44.98 52 -46.96 52 -49 52 C-48.814375 52.804375 -48.62875 53.60875 -48.4375 54.4375 C-48.293125 55.283125 -48.14875 56.12875 -48 57 C-49 58 -49 58 -52.0625 58.0625 C-53.031875 58.041875 -54.00125 58.02125 -55 58 C-54.67 59.98 -54.34 61.96 -54 64 C-56.31 64 -58.62 64 -61 64 C-61.495 64.99 -61.495 64.99 -62 66 C-62.495 63.525 -62.495 63.525 -63 61 C-60.69 61.33 -58.38 61.66 -56 62 C-56.33 59.69 -56.66 57.38 -57 55 C-55.02 55.33 -53.04 55.66 -51 56 C-51 54.02 -51 52.04 -51 50 C-49.02 50 -47.04 50 -45 50 C-45.33 48.02 -45.66 46.04 -46 44 C-42.535 44.495 -42.535 44.495 -39 45 C-39.33 43.02 -39.66 41.04 -40 39 C-38.02 39 -36.04 39 -34 39 C-34 37.02 -34 35.04 -34 33 C-32.02 33 -30.04 33 -28 33 C-28.495 30.03 -28.495 30.03 -29 27 C-27.02 27 -25.04 27 -23 27 C-23.495 24.03 -23.495 24.03 -24 21 C-21.69 21.33 -19.38 21.66 -17 22 C-17.495 18.535 -17.495 18.535 -18 15 C-16.02 15.33 -14.04 15.66 -12 16 C-12 14.02 -12 12.04 -12 10 C-10.02 10 -8.04 10 -6 10 C-6.495 7.03 -6.495 7.03 -7 4 C-4.69 4.33 -2.38 4.66 0 5 C0 3.35 0 1.7 0 0 Z " fill="#454544" transform="translate(113,71)"/>
<path d="M0 0 C-1.52367187 0.90878906 -1.52367187 0.90878906 -3.078125 1.8359375 C-14.14132933 8.53212298 -23.91493765 15.72806136 -33 25 C-33.79019531 25.804375 -34.58039063 26.60875 -35.39453125 27.4375 C-45.93357844 38.60650639 -52.32529937 50.92674243 -58 65 C-58.49306641 66.17949219 -58.49306641 66.17949219 -58.99609375 67.3828125 C-68.32538295 92.03533836 -65.79089063 121.72048613 -55.59765625 145.57421875 C-53.52460552 150.01936665 -51.32923389 154.38856563 -49.00390625 158.70703125 C-48.67261719 159.46371094 -48.34132812 160.22039062 -48 161 C-48.33 161.66 -48.66 162.32 -49 163 C-65.34903058 136.79517084 -71.84220754 107.58870691 -65.0390625 76.921875 C-62.37509024 66.34013229 -58.26149612 56.82128022 -52.51953125 47.5390625 C-50.84510959 44.88750152 -50.84510959 44.88750152 -49.5 41.3125 C-47.40630092 36.68891453 -44.47977486 32.69778486 -41 29 C-40.34 29 -39.68 29 -39 29 C-38.78085938 28.45730469 -38.56171875 27.91460937 -38.3359375 27.35546875 C-36.55454749 24.2145969 -34.17126277 21.83214257 -31.625 19.3125 C-31.09769287 18.78793213 -30.57038574 18.26336426 -30.02709961 17.72290039 C-7.82124427 -3.91062213 -7.82124427 -3.91062213 0 0 Z " fill="#424241" transform="translate(222,161)"/>
<path d="M0 0 C0.99 0.33 1.98 0.66 3 1 C2 4 2 4 -0.125 5.6875 C-2.46416442 7.56900181 -4.09229533 9.19213954 -5.9921875 11.45703125 C-11.15556028 17.43179118 -16.83806152 22.89664108 -22.45703125 28.43652344 C-27.64945523 33.5624676 -32.73879937 38.71391486 -37.484375 44.26171875 C-39.70421245 46.80766634 -42.08305254 49.13992189 -44.5 51.5 C-47.53445881 54.48944324 -50.5017114 57.4917197 -53.25 60.75 C-56.7763161 64.89256551 -60.63761606 68.67491576 -64.5 72.5 C-70.17500389 78.0854431 -70.17500389 78.0854431 -75.5 84 C-79.09851776 88.1760442 -82.93410956 92.08529504 -86.8125 96 C-87.81990234 97.02673828 -87.81990234 97.02673828 -88.84765625 98.07421875 C-89.481875 98.70972656 -90.11609375 99.34523438 -90.76953125 100 C-91.34292236 100.5775 -91.91631348 101.155 -92.50708008 101.75 C-94 103 -94 103 -96 103 C-94.64925028 100.01408905 -93.12386104 97.83727758 -90.875 95.4609375 C-90.25560547 94.80287109 -89.63621094 94.14480469 -88.99804688 93.46679688 C-88.33869141 92.77650391 -87.67933594 92.08621094 -87 91.375 C-86.32517578 90.66150391 -85.65035156 89.94800781 -84.95507812 89.21289062 C-80.42081572 84.43657036 -75.79662128 79.76660008 -71.109375 75.140625 C-69.23176972 73.23520335 -67.48009371 71.28842724 -65.75 69.25 C-60.71903086 63.36448826 -55.09705533 58.01911173 -49.59521484 52.5793457 C-48.17364911 51.17192165 -46.75826256 49.75826256 -45.34375 48.34375 C-43.83136886 46.83136886 -42.31351528 45.32443112 -40.7890625 43.82421875 C-37.29627468 40.37556362 -33.87196323 36.92476737 -30.6875 33.1875 C-27.14259433 29.04764512 -23.28848023 25.26029698 -19.4140625 21.43359375 C-15.9768365 18.02234175 -12.73450813 14.50818033 -9.59765625 10.81640625 C-7.32033566 8.22727648 -4.86412093 5.83760538 -2.3828125 3.4453125 C-0.89145515 2.02890223 -0.89145515 2.02890223 0 0 Z " fill="#232222" transform="translate(483,33)"/>
<path d="M0 0 C5.86487447 3.45877212 10.30117181 8.11321868 15 13 C14.34 14.32 13.68 15.64 13 17 C14.98 17.66 16.96 18.32 19 19 C19 19.66 19 20.32 19 21 C20.175625 21.0928125 20.175625 21.0928125 21.375 21.1875 C25.52623159 22.11794846 28.79386982 23.76610804 32.53515625 25.74609375 C34.93182184 27.04983074 34.93182184 27.04983074 37.3828125 27.75390625 C41.25008985 29.59519203 43.84969523 32.45461984 46.8125 35.5 C47.40998047 36.09425781 48.00746094 36.68851563 48.62304688 37.30078125 C53 41.73275893 53 41.73275893 53 44 C53.66 44 54.32 44 55 44 C55 44.66 55 45.32 55 46 C55.66 46 56.32 46 57 46 C56.54086934 52.23245444 56.07401722 58.46442443 55.5 64.6875 C55.4278125 65.47511719 55.355625 66.26273437 55.28125 67.07421875 C55 69 55 69 54 71 C53.90534655 72.35157981 53.86927838 73.70761148 53.8671875 75.0625 C53.86589844 75.85914063 53.86460938 76.65578125 53.86328125 77.4765625 C53.86908203 78.72566406 53.86908203 78.72566406 53.875 80 C53.87113281 80.83273437 53.86726563 81.66546875 53.86328125 82.5234375 C53.86521484 83.71839844 53.86521484 83.71839844 53.8671875 84.9375 C53.86887939 86.03384766 53.86887939 86.03384766 53.87060547 87.15234375 C53.88798205 89.09566053 53.88798205 89.09566053 55 91 C55.2896155 92.75060117 55.53372887 94.50884857 55.75390625 96.26953125 C55.88603516 97.32333984 56.01816406 98.37714844 56.15429688 99.46289062 C56.28900391 100.56826172 56.42371094 101.67363281 56.5625 102.8125 C56.77036133 104.4531543 56.77036133 104.4531543 56.98242188 106.12695312 C57.55858561 110.78451319 58.08501735 115.300519 58 120 C50.73897052 112.73897052 51.7526239 92.85760052 51.6237793 83.21191406 C51.62666359 74.73670484 51.78269829 66.52029476 53.18359375 58.15112305 C54.38796058 51.39447612 54.38796058 51.39447612 52.41015625 44.93359375 C50.09187228 42.27450222 47.76271374 40.19256922 45 38 C44.17157593 37.19997559 44.17157593 37.19997559 43.32641602 36.38378906 C37.75694674 31.08449953 31.69562069 28.16425767 24.6875 25.125 C23.60404297 24.6403125 22.52058594 24.155625 21.40429688 23.65625 C15.77527833 21.14189101 15.77527833 21.14189101 10 19 C10.27714844 18.12859375 10.55429688 17.2571875 10.83984375 16.359375 C11.37705691 12.81988091 11.37705691 12.81988091 8.69140625 10.078125 C7.66539708 9.11698609 6.62155893 8.17459558 5.5625 7.25 C3.67027255 5.53063133 1.82785337 3.78983402 0 2 C0 1.34 0 0.68 0 0 Z " fill="#6E6D6C" transform="translate(60,183)"/>
<path d="M0 0 C0 3 0 3 -1.87109375 4.953125 C-2.71800781 5.71109375 -3.56492187 6.4690625 -4.4375 7.25 C-15.20298191 17.71007817 -23.51202239 32.69707673 -24.16796875 47.890625 C-24.36644262 59.11082713 -24.36644262 59.11082713 -22 70 C-21.52240234 71.39412109 -21.52240234 71.39412109 -21.03515625 72.81640625 C-18.45486454 79.61899348 -15.05797065 85.10166405 -10.57421875 90.8203125 C-9 93 -9 93 -9 95 C-3.72 96.32 1.56 97.64 7 99 C6.505 95.535 6.505 95.535 6 92 C8.31 92.66 10.62 93.32 13 94 C13 92.02 13 90.04 13 88 C15.31 88.33 17.62 88.66 20 89 C20.33 88.34 20.66 87.68 21 87 C21 87.99 21 88.98 21 90 C19.02 90 17.04 90 15 90 C15.33 91.98 15.66 93.96 16 96 C14.02 96 12.04 96 10 96 C9.67 97.98 9.34 99.96 9 102 C-1.36211021 101.05798998 -7.95272871 99.25985858 -14.85546875 91.02734375 C-23.12788343 79.34952703 -26.36067382 68.086575 -26.375 53.875 C-26.39949219 52.61945313 -26.42398437 51.36390625 -26.44921875 50.0703125 C-26.51427497 29.16558183 -15.70365666 15.78207312 -1.66796875 1.65234375 C-1.11753906 1.10707031 -0.56710938 0.56179687 0 0 Z " fill="#585757" transform="translate(32,50)"/>
<path d="M0 0 C9.73110682 -0.2115458 19.30889017 -0.04291669 29 0.9375 C29.86592773 1.02435059 30.73185547 1.11120117 31.62402344 1.20068359 C37.72270817 1.86135409 37.72270817 1.86135409 40 3 C40 6 40 6 38.35546875 7.6484375 C37.64003906 8.21820313 36.92460937 8.78796875 36.1875 9.375 C32.99993963 12.02381777 31.03203143 14.36373322 29 18 C27.515 18.495 27.515 18.495 26 19 C25.505 20.485 25.505 20.485 25 22 C23.6171875 23.32421875 23.6171875 23.32421875 21.875 24.6875 C18.39745024 27.55220287 15.53465981 30.70183249 12.6171875 34.125 C10.52961665 36.545372 8.28802291 38.76917766 6 41 C2.44110245 44.47293384 -1.01757611 47.96852803 -4.25 51.75 C-8.09004003 56.22713758 -12.30675532 60.29464794 -16.546875 64.38671875 C-18.83491034 66.82413219 -20.31253683 69.14068741 -22 72 C-23.796875 73.80859375 -23.796875 73.80859375 -25.75 75.4375 C-26.79414062 76.31921875 -26.79414062 76.31921875 -27.859375 77.21875 C-28.56578125 77.8065625 -29.2721875 78.394375 -30 79 C-31.33480502 80.14411859 -32.66825683 81.28981889 -34 82.4375 C-35.485 83.7059375 -35.485 83.7059375 -37 85 C-35.64763423 82.06120516 -34.10057341 79.70767089 -32 77.25 C-31.484375 76.63640625 -30.96875 76.0228125 -30.4375 75.390625 C-29 74 -29 74 -27 74 C-26.731875 73.360625 -26.46375 72.72125 -26.1875 72.0625 C-25 70 -25 70 -22 69 C-21.30861557 67.67931465 -20.6453131 66.34379806 -20 65 C-18.81736003 63.70589282 -17.58293368 62.45803517 -16.3125 61.25 C-13.64069745 58.6500201 -11.10196296 56.02770159 -8.6875 53.1875 C-5.77749587 49.79804439 -2.67840824 46.63547854 0.5 43.5 C4.26216622 39.78857957 7.82809836 35.9814158 11.2578125 31.9609375 C13.96800484 28.91045196 16.90073833 26.09113608 19.8046875 23.2265625 C22.43240687 20.56143787 24.86410916 17.76389117 27.296875 14.921875 C29.61703975 12.30370744 32.09968395 9.87250202 34.6171875 7.4453125 C36.10854485 6.02890223 36.10854485 6.02890223 37 4 C36.04710083 4.02610352 36.04710083 4.02610352 35.07495117 4.05273438 C27.38609388 4.16869883 19.93562301 3.45021522 12.3125 2.5 C11.12205078 2.35691406 9.93160156 2.21382813 8.70507812 2.06640625 C5.802632 1.71671395 2.90103889 1.36114909 0 1 C0 0.67 0 0.34 0 0 Z " fill="#575555" transform="translate(113,386)"/>
<path d="M0 0 C-12.79541165 6.49583015 -25.58113983 12.94097892 -38.70751953 18.74682617 C-44.89345662 21.48584474 -51.01887201 24.3374468 -57.125 27.25 C-57.96587158 27.65049561 -58.80674316 28.05099121 -59.6730957 28.46362305 C-63.77382781 30.42586915 -67.85547523 32.42066476 -71.91796875 34.4609375 C-80.29010019 38.66331681 -88.76463532 42.65553987 -97.22412109 46.67822266 C-99.67905483 47.84717703 -102.13090759 49.0223056 -104.58203125 50.19921875 C-105.88782384 50.82072655 -107.1937973 51.44185458 -108.5 52.0625 C-109.6034375 52.58972656 -110.706875 53.11695313 -111.84375 53.66015625 C-115.20782132 55.08822118 -118.47071433 56.06866072 -122 57 C-121 54 -121 54 -119.20703125 53.078125 C-118.41683594 52.80484375 -117.62664062 52.5315625 -116.8125 52.25 C-110.97024797 50.0918232 -105.60017236 47.29233043 -100.1015625 44.390625 C-97 43 -97 43 -93 43 C-93 42.34 -93 41.68 -93 41 C-91.68 41 -90.36 41 -89 41 C-89 40.34 -89 39.68 -89 39 C-87.68 39 -86.36 39 -85 39 C-85 38.34 -85 37.68 -85 37 C-84.37996094 36.8040625 -83.75992188 36.608125 -83.12109375 36.40625 C-76.43147884 34.14716607 -70.40821412 31.23778264 -64.30444336 27.73046875 C-60.52745446 25.61118921 -57.3125294 24.44248005 -53 24 C-53 23.34 -53 22.68 -53 22 C-50.85799177 20.88786202 -48.71181908 19.78535363 -46.5625 18.6875 C-45.97017578 18.37876953 -45.37785156 18.07003906 -44.76757812 17.75195312 C-41.44177357 16.06237327 -38.1893808 14.69094972 -34.625 13.58203125 C-29.56459277 11.96539982 -25.07720964 9.55880175 -20.4375 7 C-4.7799634 -1.59332113 -4.7799634 -1.59332113 0 0 Z " fill="#646362" transform="translate(197,429)"/>
<path d="M0 0 C13.84471188 7.38384634 32.63351423 19.00393372 37.59448242 34.90551758 C38.41037672 39.11957968 38.27007907 43.40864201 38.3125 47.6875 C38.34150391 48.64333984 38.37050781 49.59917969 38.40039062 50.58398438 C38.49183245 60.90284265 34.64405305 68.83994105 27.75 76.5 C14.94190048 88.14372684 14.94190048 88.14372684 6.625 88.1875 C5.42875 88.125625 4.2325 88.06375 3 88 C3 87.67 3 87.34 3 87 C3.59425781 86.86464844 4.18851562 86.72929687 4.80078125 86.58984375 C12.05216095 84.70651496 18.01472611 81.50796491 24 77 C24.33 76.34 24.66 75.68 25 75 C25.66 75 26.32 75 27 75 C27.2784375 74.44054687 27.556875 73.88109375 27.84375 73.3046875 C28.6271339 71.74321284 29.41908328 70.18601132 30.21875 68.6328125 C30.6415625 67.80523437 31.064375 66.97765625 31.5 66.125 C31.9228125 65.30257812 32.345625 64.48015625 32.78125 63.6328125 C36.66897361 55.23433266 37.58013112 46.1976256 34.8125 37.25 C34.24594562 35.81787642 33.64080735 34.40047412 33 33 C32.6596875 32.23945313 32.319375 31.47890625 31.96875 30.6953125 C28.48234116 23.698938 23.4346161 19.28974407 17 15 C17 14.34 17 13.68 17 13 C16.28199219 12.9278125 15.56398438 12.855625 14.82421875 12.78125 C11.21704898 11.78341604 9.50453904 10.07393143 6.8125 7.5 C3.6654128 4.38154906 3.6654128 4.38154906 0 2 C0 1.34 0 0.68 0 0 Z " fill="#3A3A39" transform="translate(468,412)"/>
<path d="M0 0 C1.08547119 0.00088623 2.17094238 0.00177246 3.28930664 0.00268555 C12.94120669 0.14283623 21.68755055 1.74039901 30.9375 4.375 C31.93007813 4.62507812 32.92265625 4.87515625 33.9453125 5.1328125 C39.79663071 6.68958523 44.78147873 9.22409811 49.9375 12.375 C49.2775 12.705 48.6175 13.035 47.9375 13.375 C45.44126803 12.5398859 43.01366407 11.63987364 40.5625 10.6875 C13.9931433 0.94995015 -13.03585608 0.38827726 -39.54296875 11.13671875 C-43.06565762 12.37611095 -43.74943042 12.44966871 -47.0625 11.375 C-32.62819479 3.25986066 -16.44591221 -0.02445585 0 0 Z " fill="#454544" transform="translate(269.0625,147.625)"/>
<path d="M0 0 C0.66 0 1.32 0 2 0 C1.545201 4.63732552 0.01138914 6.34841071 -3.5 9.3125 C-4.3971875 10.08078125 -5.294375 10.8490625 -6.21875 11.640625 C-7.1365625 12.41921875 -8.054375 13.1978125 -9 14 C-11.40058815 16.18366753 -13.79459208 18.37433167 -16.1875 20.56640625 C-18 22 -18 22 -20 22 C-20.23976563 22.57621094 -20.47953125 23.15242188 -20.7265625 23.74609375 C-22.25848329 26.45749956 -24.02073052 28.02441882 -26.375 30.0625 C-30.33725455 33.53806144 -34.25255709 37.05043731 -38.125 40.625 C-41.49206772 43.72059022 -44.87225865 46.79812992 -48.3125 49.8125 C-48.92609375 50.35390625 -49.5396875 50.8953125 -50.171875 51.453125 C-51.43985424 52.52603051 -52.74573287 53.55509439 -54.078125 54.546875 C-55.91725253 55.95156296 -57.5390575 57.20445454 -59 59 C-59.11812009 62.30966436 -59.11812009 62.30966436 -58 65 C-58.99 64.67 -59.98 64.34 -61 64 C-61.96484375 61.46484375 -61.96484375 61.46484375 -62 58 C-59.91128933 55.10081576 -57.25987627 52.88635703 -54.5625 50.5625 C-53.86189453 49.93279297 -53.16128906 49.30308594 -52.43945312 48.65429688 C-50.31044975 46.74857444 -48.1591969 44.87140187 -46 43 C-41.39351082 38.98317537 -36.81056164 34.95123004 -32.3125 30.8125 C-31.81266602 30.35327148 -31.31283203 29.89404297 -30.79785156 29.42089844 C-28.06691453 26.91006172 -25.34250375 24.39225053 -22.62109375 21.87109375 C-21.497408 20.83071602 -20.37371019 19.79035133 -19.25 18.75 C-18.7031958 18.24299561 -18.1563916 17.73599121 -17.59301758 17.21362305 C-14.61048925 14.45651574 -11.59011551 11.76205346 -8.5 9.125 C-6.12126376 7.08249863 -4.08784519 5.00754704 -2.125 2.5625 C-1.073125 1.2940625 -1.073125 1.2940625 0 0 Z " fill="#262525" transform="translate(474,141)"/>
<path d="M0 0 C5.70370362 2.91005287 9.62869335 6.36872577 14 11 C17.01383886 14.02553174 20.04148013 17.03705794 23.07176208 20.04611206 C25.15024944 22.11102507 27.22590536 24.17877558 29.30151367 26.24658203 C30.38948192 27.32951715 31.47834541 28.41155363 32.56811523 29.49267578 C38.27456797 35.15519959 43.81928073 40.84485077 49 47 C50.27820589 48.20414163 51.58541179 49.37945333 52.9375 50.5 C57.94568722 54.77225131 62.65626324 59.17057831 66.625 64.4375 C68.74425827 67.26987778 68.74425827 67.26987778 71.8125 67.375 C72.534375 67.25125 73.25625 67.1275 74 67 C73.01 67.99 72.02 68.98 71 70 C65.16486948 67.40660866 61.36346695 63.3368539 57.3125 58.5625 C53.59790687 54.44632924 49.60688562 50.60323843 45.62329102 46.74853516 C45.02701904 46.16378418 44.43074707 45.5790332 43.81640625 44.9765625 C43.27443604 44.45143066 42.73246582 43.92629883 42.17407227 43.38525391 C41 42 41 42 41 40 C40.12794922 39.61714844 40.12794922 39.61714844 39.23828125 39.2265625 C32.94795226 35.77950612 28.20861235 29.17172942 23.578125 23.80078125 C21.49089135 21.41906167 19.26650573 19.2112251 17 17 C16.33484375 16.32453125 15.6696875 15.6490625 14.984375 14.953125 C14.26765625 14.22609375 13.5509375 13.4990625 12.8125 12.75 C12.13832031 12.06421875 11.46414062 11.3784375 10.76953125 10.671875 C9.09201005 8.92550889 9.09201005 8.92550889 7 8 C7 7.34 7 6.68 7 6 C6.21625 5.7525 5.4325 5.505 4.625 5.25 C1.67682892 3.84610901 1.0975223 2.99324263 0 0 Z " fill="#71706F" transform="translate(128,20)"/>
<path d="M0 0 C12.97617782 19.46426673 14.16602594 51.48322355 11 74 C10.34 74 9.68 74 9 74 C8.9906543 73.07477539 8.98130859 72.14955078 8.97167969 71.19628906 C8.69760088 49.56555997 7.36060991 29.69052486 0.734375 8.9453125 C-0.03637027 5.854132 -0.1325932 3.17276595 0 0 Z " fill="#3D3D3C" transform="translate(416,206)"/>
<path d="M0 0 C11.43233927 0.23817373 19.45942954 12.37852151 26.93359375 19.97265625 C31.25250728 24.33356894 35.62614203 28.54365829 40.29101562 32.53417969 C42.68846044 34.59050236 44.89908552 36.63647121 47 39 C47 39.99 47 40.98 47 42 C43.24008935 40.47732125 41.27676238 38.20580292 38.625 35.1875 C32.79612665 29.15793191 26.94284384 27.17455379 19 25 C19 26.98 19 28.96 19 31 C18.34 31 17.68 31 17 31 C16.61936779 28.6739143 16.28730055 26.33944736 16 24 C16.33 23.67 16.66 23.34 17 23 C19.03261719 23.22584635 21.06541981 23.45584059 23.08984375 23.74609375 C25.00926739 24.04392179 25.00926739 24.04392179 27 24 C16.19325535 10.8558269 16.19325535 10.8558269 2 2 C1.67 2.99 1.34 3.98 1 5 C0.67 3.35 0.34 1.7 0 0 Z " fill="#434342" transform="translate(113,71)"/>
<path d="M0 0 C0.33 0 0.66 0 1 0 C0.97905273 1.01610352 0.95810547 2.03220703 0.93652344 3.07910156 C0.39079137 32.12215831 1.96769444 55.65428967 15.99609375 81.70703125 C16.32738281 82.46371094 16.65867188 83.22039062 17 84 C16.67 84.66 16.34 85.32 16 86 C3.97344158 66.72338863 -2.20116855 48.56893049 -2.1875 25.8125 C-2.18814453 24.707854 -2.18878906 23.60320801 -2.18945312 22.46508789 C-2.13979515 14.79913832 -1.67090442 7.5041511 0 0 Z " fill="#656565" transform="translate(157,238)"/>
<path d="M0 0 C0 0.66 0 1.32 0 2 C-23.05894396 14.2633139 -47.60412035 23.54773415 -74 24 C-74 23.34 -74 22.68 -74 22 C-73.38294189 21.91024902 -72.76588379 21.82049805 -72.13012695 21.72802734 C-53.84411044 19.01410603 -36.48289926 15.01119451 -19.1875 8.4375 C-18.47674316 8.16897217 -17.76598633 7.90044434 -17.03369141 7.6237793 C-12.58377231 5.85703972 -8.7095979 3.67472845 -4.75512695 0.97290039 C-3 0 -3 0 0 0 Z " fill="#7C7B7A" transform="translate(351,397)"/>
<path d="M0 0 C0.99 0.495 0.99 0.495 2 1 C0.68 1.33 -0.64 1.66 -2 2 C-2 2.66 -2 3.32 -2 4 C-25.34585422 12.71679622 -55.20383385 11.51450155 -78 2 C-74.78974852 0.92991617 -73.75227531 1.06081587 -70.54296875 1.7421875 C-69.67736328 1.92136719 -68.81175781 2.10054688 -67.91992188 2.28515625 C-67.01822266 2.47980469 -66.11652344 2.67445313 -65.1875 2.875 C-43.04819134 7.52409451 -21.73967679 7.24655893 0 0 Z " fill="#50504F" transform="translate(309,370)"/>
<path d="M0 0 C3.05804426 2.95402915 5.76584388 6.06899919 8.4375 9.375 C9.23285156 10.34953125 10.02820313 11.3240625 10.84765625 12.328125 C12.38572422 14.23745075 13.89147478 16.17299313 15.375 18.125 C26.72927298 30.56063231 41.94983116 38.88662233 57 46 C57 46.33 57 46.66 57 47 C47.02947537 46.54679433 38.46637692 40.77151241 30.9609375 34.59375 C28.85027111 32.82229597 28.85027111 32.82229597 25.75 30.875 C22.74940194 28.82913769 20.51105855 26.62785197 18 24 C16.48000943 22.49914601 14.95909938 20.99922292 13.4375 19.5 C5 11.0484375 5 11.0484375 5 8 C4.01 7.67 3.02 7.34 2 7 C0 4 0 4 0 0 Z " fill="#474746" transform="translate(174,324)"/>
<path d="M0 0 C0.66 0.33 1.32 0.66 2 1 C2.40729228 3.32156597 2.74438677 5.6568787 3 8 C0.03 7.505 0.03 7.505 -3 7 C-2.67 9.31 -2.34 11.62 -2 14 C-4.31 13.67 -6.62 13.34 -9 13 C-8.67 15.31 -8.34 17.62 -8 20 C-9.98 19.67 -11.96 19.34 -14 19 C-14 20.65 -14 22.3 -14 24 C-15.98 24 -17.96 24 -20 24 C-19.67 26.31 -19.34 28.62 -19 31 C-20.98 30.67 -22.96 30.34 -25 30 C-25 31.98 -25 33.96 -25 36 C-25.99 35.67 -26.98 35.34 -28 35 C-28 32.69 -28 30.38 -28 28 C-25 27 -25 27 -22 28 C-22 26.02 -22 24.04 -22 22 C-20.02 22.33 -18.04 22.66 -16 23 C-16.33 21.02 -16.66 19.04 -17 17 C-14 16 -14 16 -11 17 C-11 15.02 -11 13.04 -11 11 C-9.02 11 -7.04 11 -5 11 C-5 9.02 -5 7.04 -5 5 C-3.35 5 -1.7 5 0 5 C0 3.35 0 1.7 0 0 Z " fill="#A3A2A1" transform="translate(118,106)"/>
<path d="M0 0 C1.90726102 0.35521475 3.81464908 0.70982703 5.72363281 1.05566406 C7.80403041 1.4359518 9.88056855 1.83320672 11.95703125 2.234375 C17.28804976 3.25561371 22.64130624 4.1373315 28 5 C28 5.66 28 6.32 28 7 C19.04428917 6.67314924 10.61791578 5.2617887 1.89355469 3.28417969 C1.07274414 3.10532227 0.25193359 2.92646484 -0.59375 2.7421875 C-1.32271484 2.5757373 -2.05167969 2.40928711 -2.80273438 2.23779297 C-7.13479079 1.7689682 -10.653339 3.13853576 -14.50390625 4.99609375 C-15.32697266 5.38990234 -16.15003906 5.78371094 -16.99804688 6.18945312 C-17.84431641 6.60130859 -18.69058594 7.01316406 -19.5625 7.4375 C-20.41263672 7.84548828 -21.26277344 8.25347656 -22.13867188 8.67382812 C-26.66817909 10.82733646 -26.66817909 10.82733646 -31.08569336 13.19555664 C-33 14 -33 14 -36 13 C-32.82241656 9.29281932 -28.75780541 7.55203806 -24.1640625 6.109375 C-20.92110281 4.97233728 -18.17706329 3.49738105 -15.1875 1.8125 C-9.35407912 -1.11492051 -6.21893828 -1.4962859 0 0 Z " fill="#787676" transform="translate(233,414)"/>
<path d="M0 0 C3 1 3 1 3.9140625 2.8203125 C6.32273138 10.62863468 7.16633943 17.84936808 7 26 C7.66 26 8.32 26 9 26 C9 35.57 9 45.14 9 55 C8.34 55 7.68 55 7 55 C7 57.97 7 60.94 7 64 C6.34 64 5.68 64 5 64 C5.03552979 63.23034912 5.07105957 62.46069824 5.10766602 61.66772461 C5.98266309 42.13001871 6.46425305 24.73219771 1.05859375 5.82421875 C0 2 0 2 0 0 Z " fill="#585857" transform="translate(376,223)"/>
<path d="M0 0 C3.37462715 0.54723683 5.08235 1.0549 8 3 C6.02 2.67 4.04 2.34 2 2 C2 3.98 2 5.96 2 8 C-1.75 9.125 -1.75 9.125 -4 8 C-3.814375 8.804375 -3.62875 9.60875 -3.4375 10.4375 C-3.293125 11.283125 -3.14875 12.12875 -3 13 C-4 14 -4 14 -6.5625 14.0625 C-7.366875 14.041875 -8.17125 14.02125 -9 14 C-9 15.65 -9 17.3 -9 19 C-10.98 19 -12.96 19 -15 19 C-14.814375 19.804375 -14.62875 20.60875 -14.4375 21.4375 C-14.293125 22.283125 -14.14875 23.12875 -14 24 C-15 25 -15 25 -18.0625 25.0625 C-19.031875 25.041875 -20.00125 25.02125 -21 25 C-20.67 26.98 -20.34 28.96 -20 31 C-22.31 31 -24.62 31 -27 31 C-27.33 31.66 -27.66 32.32 -28 33 C-28.33 31.35 -28.66 29.7 -29 28 C-26.69 28.33 -24.38 28.66 -22 29 C-22.33 26.69 -22.66 24.38 -23 22 C-21.02 22.33 -19.04 22.66 -17 23 C-17 21.02 -17 19.04 -17 17 C-15.02 17 -13.04 17 -11 17 C-11.33 15.02 -11.66 13.04 -12 11 C-9.69 11.33 -7.38 11.66 -5 12 C-5.33 10.02 -5.66 8.04 -6 6 C-4.02 6 -2.04 6 0 6 C0 4.02 0 2.04 0 0 Z " fill="#3C3C3B" transform="translate(79,104)"/>
<path d="M0 0 C5.86487447 3.45877212 10.30117181 8.11321868 15 13 C14.34 14.32 13.68 15.64 13 17 C14.98 17.66 16.96 18.32 19 19 C19 19.66 19 20.32 19 21 C20.175625 21.0928125 20.175625 21.0928125 21.375 21.1875 C25.52623159 22.11794846 28.79386982 23.76610804 32.53515625 25.74609375 C34.98707131 27.04962732 34.98707131 27.04962732 37.6328125 27.99609375 C40.81669519 29.34635423 42.68046538 31.48164813 45 34 C44.67 34.99 44.34 35.98 44 37 C43.09765625 36.12988281 42.1953125 35.25976562 41.265625 34.36328125 C36.33526587 30.13920972 30.65258361 27.77342756 24.75 25.1875 C23.66203125 24.69830078 22.5740625 24.20910156 21.453125 23.70507812 C15.80184676 21.16154216 15.80184676 21.16154216 10 19 C10.27714844 18.12859375 10.55429688 17.2571875 10.83984375 16.359375 C11.37705691 12.81988091 11.37705691 12.81988091 8.69140625 10.078125 C7.66539708 9.11698609 6.62155893 8.17459558 5.5625 7.25 C3.67027255 5.53063133 1.82785337 3.78983402 0 2 C0 1.34 0 0.68 0 0 Z " fill="#575656" transform="translate(60,183)"/>
<path d="M0 0 C2 2 2 2 2.2890625 5.9296875 C2.15668401 11.5456765 0.8483882 16.72815078 -0.625 22.125 C-0.89280273 23.12893799 -1.16060547 24.13287598 -1.43652344 25.16723633 C-3.69469072 33.39031164 -6.48106629 41.23078792 -10 49 C-10.48726563 50.15435547 -10.48726563 50.15435547 -10.984375 51.33203125 C-12 53 -12 53 -15 54 C-14.67 52.68 -14.34 51.36 -14 50 C-13.34 50 -12.68 50 -12 50 C-11.90332031 49.04222656 -11.80664062 48.08445312 -11.70703125 47.09765625 C-11.02286227 42.31566258 -9.32306437 37.96266077 -7.6875 33.4375 C-3.85990883 22.4890374 -1.73819894 11.44493809 0 0 Z " fill="#5B5A59" transform="translate(424,278)"/>
<path d="M0 0 C0 3 0 3 -1.3125 4.375 C-1.869375 4.91125 -2.42625 5.4475 -3 6 C-3.41894531 6.73476562 -3.83789062 7.46953125 -4.26953125 8.2265625 C-6.30734715 11.49258799 -8.74794044 14.21040233 -11.375 17 C-11.89304199 17.55453857 -12.41108398 18.10907715 -12.94482422 18.68041992 C-16.95148957 22.94281713 -21.01695509 27.14783225 -25.125 31.3125 C-25.959104 32.16618164 -25.959104 32.16618164 -26.81005859 33.03710938 C-28.16791449 34.39791622 -29.57956582 35.70464883 -31 37 C-31.66 37 -32.32 37 -33 37 C-31.64925028 34.01408905 -30.12386104 31.83727758 -27.875 29.4609375 C-27.2555249 28.80279053 -26.6360498 28.14464355 -25.99780273 27.46655273 C-25.33852783 26.77634033 -24.67925293 26.08612793 -24 25.375 C-23.32590088 24.662229 -22.65180176 23.94945801 -21.95727539 23.21508789 C-17.41865085 18.43397035 -12.79019405 13.75877243 -8.09765625 9.12890625 C-5.22702438 6.21550891 -2.60410849 3.15234186 0 0 Z " fill="#2F2F2E" transform="translate(420,99)"/>
<path d="M0 0 C1.74216797 0.05414063 1.74216797 0.05414063 3.51953125 0.109375 C4.39996094 0.15578125 5.28039062 0.2021875 6.1875 0.25 C6.1875 0.91 6.1875 1.57 6.1875 2.25 C5.52363281 2.21519531 4.85976563 2.18039062 4.17578125 2.14453125 C-2.83514576 1.87563142 -2.83514576 1.87563142 -8.8125 5.25 C-12.39460461 9.2174655 -12.3665892 12.43678842 -12.2421875 17.61328125 C-11.97669431 20.54117137 -11.97669431 20.54117137 -9.4375 23.375 C-5.4927176 26.19270171 -3.51753291 26.36388333 1.3125 26.3125 C2.40820312 26.30347656 3.50390625 26.29445313 4.6328125 26.28515625 C5.47585938 26.27355469 6.31890625 26.26195312 7.1875 26.25 C7.1875 26.91 7.1875 27.57 7.1875 28.25 C0.52838521 29.41270258 -4.73436938 29.5470398 -10.8125 26.25 C-13.24406554 23.30264783 -13.8125 22.06180777 -13.8125 18.25 C-14.4725 18.25 -15.1325 18.25 -15.8125 18.25 C-16.23314893 12.15059045 -15.90214656 9.11336347 -11.8125 4.25 C-7.86879747 0.41738768 -5.45871237 -0.22055404 0 0 Z " fill="#282727" transform="translate(465.8125,445.75)"/>
<path d="M0 0 C0 3 0 3 -1.87109375 4.953125 C-2.71800781 5.71109375 -3.56492187 6.4690625 -4.4375 7.25 C-16.5437854 19.01284468 -23.46432099 34.52604949 -24.5625 51.3125 C-24.64628906 52.56675781 -24.73007812 53.82101563 -24.81640625 55.11328125 C-24.87699219 56.06589844 -24.93757813 57.01851562 -25 58 C-25.33 58 -25.66 58 -26 58 C-26.74961793 38.09347938 -23.06737753 24.52531295 -9.3125 9.5625 C-6.27432498 6.30938717 -3.16224715 3.13262423 0 0 Z " fill="#838281" transform="translate(32,50)"/>
<path d="M0 0 C9.06246314 0.38563673 14.86283068 5.75258213 21 12 C23.01938767 13.94102337 25.0690359 15.84784867 27.125 17.75 C27.64964844 18.24371094 28.17429687 18.73742187 28.71484375 19.24609375 C31.13569655 21.48308432 32.83456777 22.94485592 36 24 C36 24.99 36 25.98 36 27 C36.639375 27.226875 37.27875 27.45375 37.9375 27.6875 C40 29 40 29 40.75 31.625 C40.8325 32.40875 40.915 33.1925 41 34 C38.46886154 31.47795001 35.94897813 28.94756739 33.45703125 26.38671875 C24.66335549 17.41119445 15.50584858 10.06832074 4.6875 3.6640625 C2 2 2 2 0 0 Z " fill="#262625" transform="translate(319,161)"/>
<path d="M0 0 C0.33 0.66 0.66 1.32 1 2 C-0.14117032 4.47555465 -1.34155916 6.84958855 -2.625 9.25 C-9.4370049 22.51165331 -12.95144101 35.31033313 -15 50 C-15.33 50 -15.66 50 -16 50 C-15.96338578 33.15745952 -12.65041142 12.65041142 0 0 Z " fill="#3E3E3D" transform="translate(173,203)"/>
<path d="M0 0 C0 4.14055405 -2.22547328 5.78746611 -4.9375 8.625 C-5.6809668 9.42079468 -5.6809668 9.42079468 -6.43945312 10.23266602 C-10.22289624 14.25772145 -14.127975 18.15150556 -18.125 21.96484375 C-20.09754396 23.96644315 -20.09754396 23.96644315 -21.515625 26.5390625 C-23.03618857 29.05999685 -24.50139327 30.56216198 -26.75 32.4375 C-27.79414062 33.31921875 -27.79414062 33.31921875 -28.859375 34.21875 C-29.56578125 34.8065625 -30.2721875 35.394375 -31 36 C-32.33480502 37.14411859 -33.66825683 38.28981889 -35 39.4375 C-36.485 40.7059375 -36.485 40.7059375 -38 42 C-36.64763423 39.06120516 -35.10057341 36.70767089 -33 34.25 C-32.484375 33.63640625 -31.96875 33.0228125 -31.4375 32.390625 C-30 31 -30 31 -28 31 C-27.731875 30.360625 -27.46375 29.72125 -27.1875 29.0625 C-26 27 -26 27 -23 26 C-22.30861557 24.67931465 -21.6453131 23.34379806 -21 22 C-19.81736003 20.70589282 -18.58293368 19.45803517 -17.3125 18.25 C-13.9088235 14.93864745 -10.76979169 11.49744734 -7.67578125 7.8984375 C-5.23731309 5.13597706 -2.63690415 2.57258941 0 0 Z " fill="#383736" transform="translate(114,429)"/>
<path d="M0 0 C3.34249629 0.59687434 5.46436342 1.73603877 8 4 C8 4.66 8 5.32 8 6 C8.66 6 9.32 6 10 6 C11.55078125 7.609375 11.55078125 7.609375 13.3125 9.75 C15.98762235 12.91761349 18.73925686 15.43092965 22 18 C22 18.66 22 19.32 22 20 C22.66 20 23.32 20 24 20 C24 20.66 24 21.32 24 22 C24.99 22.33 25.98 22.66 27 23 C28.70884005 24.62339805 30.37446717 26.29319053 32 28 C32.515625 28.495 33.03125 28.99 33.5625 29.5 C35.52656578 31.54945994 37.2500067 33.76724993 39 36 C38.505 36.99 38.505 36.99 38 38 C28.33203125 28.33203125 28.33203125 28.33203125 26.60717773 26.60693359 C25.22568429 25.22565001 23.84338903 23.84516844 22.4609375 22.46484375 C20.62110505 20.62209093 18.78712599 18.77424965 16.95703125 16.921875 C15.90887692 15.86456077 14.86069962 14.80726933 13.8125 13.75 C13.27947266 13.20859375 12.74644531 12.6671875 12.19726562 12.109375 C9.37492463 9.19242899 9.37492463 9.19242899 6 7 C6 6.34 6 5.68 6 5 C5.38125 4.731875 4.7625 4.46375 4.125 4.1875 C2 3 2 3 0 0 Z " fill="#73726F" transform="translate(365,413)"/>
<path d="M0 0 C-9.33097598 5.00618681 -18.68321375 9.95655489 -28.25 14.5 C-29.26598267 14.98823242 -29.26598267 14.98823242 -30.30249023 15.48632812 C-34.4677913 17.43818168 -38.5457682 18.84605394 -43 20 C-42 17 -42 17 -40.20703125 16.078125 C-39.41683594 15.80484375 -38.62664062 15.5315625 -37.8125 15.25 C-31.97024797 13.0918232 -26.60017236 10.29233043 -21.1015625 7.390625 C-18 6 -18 6 -14 6 C-14 5.34 -14 4.68 -14 4 C-12.68 4 -11.36 4 -10 4 C-10 3.34 -10 2.68 -10 2 C-8.68 2 -7.36 2 -6 2 C-6 1.34 -6 0.68 -6 0 C-3.50907189 -1.24546405 -2.58919267 -0.7767578 0 0 Z " fill="#7C7A79" transform="translate(118,466)"/>
<path d="M0 0 C9.76412112 -0.20275429 19.17330812 0.36043619 28.875 1.5 C30.78345703 1.71462891 30.78345703 1.71462891 32.73046875 1.93359375 C35.82116747 2.28216879 38.91088451 2.63770823 42 3 C42 3.66 42 4.32 42 5 C33.73725554 5.21509642 25.62739687 4.65867825 17.40771484 3.828125 C15.34432398 3.62193461 13.27981554 3.43181288 11.21484375 3.2421875 C9.91417969 3.11328125 8.61351563 2.984375 7.2734375 2.8515625 C6.09185059 2.73635254 4.91026367 2.62114258 3.69287109 2.50244141 C2.80422363 2.33663574 1.91557617 2.17083008 1 2 C0.67 1.34 0.34 0.68 0 0 Z " fill="#787877" transform="translate(71,381)"/>
<path d="M0 0 C0.33 0 0.66 0 1 0 C1.23049691 17.38605251 -8.59260374 33.47968703 -20 46 C-20 42.5501311 -19.47179885 41.95597928 -17.5 39.25 C-9.44346761 27.49850949 -2.4971898 14.14198015 0 0 Z " fill="#6C6C6A" transform="translate(380,288)"/>
<path d="M0 0 C0.33 0.99 0.66 1.98 1 3 C-0.98 3 -2.96 3 -5 3 C-4.67 4.98 -4.34 6.96 -4 9 C-5.98 9 -7.96 9 -10 9 C-10.33 10.98 -10.66 12.96 -11 15 C-18.625 14.125 -18.625 14.125 -22 13 C-22 12.34 -22 11.68 -22 11 C-22.66 10.67 -23.32 10.34 -24 10 C-20.37 10.66 -16.74 11.32 -13 12 C-13.33 9.69 -13.66 7.38 -14 5 C-11.69 5.66 -9.38 6.32 -7 7 C-7 5.02 -7 3.04 -7 1 C-4.69 1.33 -2.38 1.66 0 2 C0 1.34 0 0.68 0 0 Z " fill="#595857" transform="translate(52,137)"/>
<path d="M0 0 C-3.48033107 1.76531244 -6.96352981 3.52483077 -10.44921875 5.27954102 C-12.20198086 6.16328861 -13.95258523 7.05131162 -15.703125 7.93945312 C-31.57154599 15.91874436 -31.57154599 15.91874436 -38 18 C-38.66 17.67 -39.32 17.34 -40 17 C-39 15 -39 15 -37.26977539 14.32421875 C-36.53235107 14.11410156 -35.79492676 13.90398437 -35.03515625 13.6875 C-29.81138557 12.04234809 -25.22042108 9.63778291 -20.4375 7 C-4.7799634 -1.59332113 -4.7799634 -1.59332113 0 0 Z " fill="#605E5D" transform="translate(197,429)"/>
<path d="M0 0 C0.66 0.33 1.32 0.66 2 1 C0.71580959 2.67243402 -0.57757185 4.33781447 -1.875 6 C-2.59429687 6.928125 -3.31359375 7.85625 -4.0546875 8.8125 C-4.69664063 9.534375 -5.33859375 10.25625 -6 11 C-6.66 11 -7.32 11 -8 11 C-8 11.66 -8 12.32 -8 13 C-8.99 13.495 -8.99 13.495 -10 14 C-11.0409066 15.64142963 -12.04504326 17.30712215 -13 19 C-12.67 19 -12.34 19 -12 19 C-10.33333333 19 -8.66666667 19 -7 19 C-11.13312472 22.24745514 -13.63932628 24 -19 24 C-18.41006929 20.46828151 -17.09874127 18.66994505 -14.6875 16.0625 C-12.67340506 13.84740576 -10.73341993 11.66285462 -8.875 9.3125 C-6.74575459 6.68643066 -4.42097527 4.3572654 -2 2 C-1.34 1.34 -0.68 0.68 0 0 Z " fill="#41403F" transform="translate(74,471)"/>
<path d="M0 0 C0.75 1.625 0.75 1.625 1 4 C-3.76058667 12.6056759 -12.72300397 20.52112649 -22 24 C-24.72208838 24.22271632 -27.26046667 24.1417 -30 24 C-30 23.67 -30 23.34 -30 23 C-29.40574219 22.86464844 -28.81148438 22.72929687 -28.19921875 22.58984375 C-20.94783905 20.70651496 -14.98527389 17.50796491 -9 13 C-8.67 12.34 -8.34 11.68 -8 11 C-7.34 11 -6.68 11 -6 11 C-5.7525 10.484375 -5.505 9.96875 -5.25 9.4375 C-3.60418384 6.22815849 -1.8023904 3.12414336 0 0 Z " fill="#545453" transform="translate(501,476)"/>
<path d="M0 0 C9.73110682 -0.2115458 19.30889017 -0.04291669 29 0.9375 C30.2988916 1.06777588 30.2988916 1.06777588 31.62402344 1.20068359 C37.72270817 1.86135409 37.72270817 1.86135409 40 3 C39.67 3.99 39.34 4.98 39 6 C39 5.34 39 4.68 39 4 C37.83271362 4.02610352 37.83271362 4.02610352 36.6418457 4.05273438 C28.37437674 4.15616239 20.38384335 3.53680241 12.1875 2.5 C11.00607422 2.35691406 9.82464844 2.21382813 8.60742188 2.06640625 C5.73736254 1.71781605 2.86835788 1.36227832 0 1 C0 0.67 0 0.34 0 0 Z " fill="#8A8988" transform="translate(113,386)"/>
<path d="M0 0 C0.66 0 1.32 0 2 0 C2.33 2.31 2.66 4.62 3 7 C0.03 6.505 0.03 6.505 -3 6 C-2.67 8.31 -2.34 10.62 -2 13 C-4.97 12.505 -4.97 12.505 -8 12 C-7.67 16.29 -7.34 20.58 -7 25 C-9.90298181 20.64552729 -11.27996489 16.23971916 -10.625 11 C-10.41875 10.34 -10.2125 9.68 -10 9 C-8.35 9.33 -6.7 9.66 -5 10 C-5 8.02 -5 6.04 -5 4 C-3.35 3.67 -1.7 3.34 0 3 C0 2.01 0 1.02 0 0 Z " fill="#666564" transform="translate(67,158)"/>
<path d="M0 0 C0.33 0.99 0.66 1.98 1 3 C0.46890625 3.38671875 -0.0621875 3.7734375 -0.609375 4.171875 C-5.01353535 7.41873774 -8.89907846 10.73746911 -12.625 14.75 C-14 16 -14 16 -16 16 C-16.38285156 16.85851563 -16.38285156 16.85851563 -16.7734375 17.734375 C-18.13087159 20.24173733 -19.71974104 22.1330456 -21.625 24.25 C-22.25664063 24.95640625 -22.88828125 25.6628125 -23.5390625 26.390625 C-24.26222656 27.18726563 -24.26222656 27.18726563 -25 28 C-26.32 27.67 -27.64 27.34 -29 27 C-28.236875 26.4225 -27.47375 25.845 -26.6875 25.25 C-23.99108421 23.16642802 -23.99108421 23.16642802 -22.3125 20.75 C-21.6628125 19.88375 -21.6628125 19.88375 -21 19 C-20.34 19 -19.68 19 -19 19 C-18.80148438 18.46503906 -18.60296875 17.93007813 -18.3984375 17.37890625 C-16.37669066 13.93967769 -13.57620131 11.58643069 -10.625 8.9375 C-10.0475 8.40833984 -9.47 7.87917969 -8.875 7.33398438 C-6.0170639 4.73378452 -3.1525298 2.24404215 0 0 Z " fill="#9B9999" transform="translate(63,21)"/>
<path d="M0 0 C-0.71542969 0.16604736 -1.43085938 0.33209473 -2.16796875 0.50317383 C-5.44662607 1.26743394 -8.7232984 2.03989979 -12 2.8125 C-13.12535156 3.07353516 -14.25070313 3.33457031 -15.41015625 3.60351562 C-20.25204329 4.75027835 -24.94827269 5.88157093 -29.5625 7.76171875 C-33.03686483 9.01327972 -33.71469088 9.0626034 -37 8 C-25.94361061 2.04836912 -12.73420644 -3.50557977 0 0 Z " fill="#242423" transform="translate(259,151)"/>
<path d="M0 0 C0.66 0.33 1.32 0.66 2 1 C-0.75907221 5.34860795 -3.78627442 9.17635628 -7.3125 12.9375 C-7.79307861 13.45602539 -8.27365723 13.97455078 -8.76879883 14.50878906 C-12.42246782 18.43230699 -16.16640656 22.25159753 -20 26 C-20 23 -20 23 -18.6875 21.625 C-18.130625 21.08875 -17.57375 20.5525 -17 20 C-16.39285156 18.90171875 -16.39285156 18.90171875 -15.7734375 17.78125 C-13.563662 14.315699 -10.88910328 11.70995309 -7.9375 8.875 C-3.64271736 4.72587682 -3.64271736 4.72587682 0 0 Z " fill="#333232" transform="translate(437,81)"/>
<path d="M0 0 C0.66 0.33 1.32 0.66 2 1 C0.71372289 2.17260611 -0.57919783 3.3379283 -1.875 4.5 C-2.59429687 5.1496875 -3.31359375 5.799375 -4.0546875 6.46875 C-6 8 -6 8 -8 8 C-8 8.66 -8 9.32 -8 10 C-9.64892578 11.43286133 -9.64892578 11.43286133 -11.9453125 13.08203125 C-12.77546875 13.68466797 -13.605625 14.28730469 -14.4609375 14.90820312 C-15.34007813 15.53662109 -16.21921875 16.16503906 -17.125 16.8125 C-22.55866697 20.72817718 -27.92155004 24.6292029 -33 29 C-33.66 28.67 -34.32 28.34 -35 28 C-28.91183067 22.88016894 -22.81884175 17.78733949 -16.51171875 12.9375 C-13.13665864 10.33403217 -9.78766149 7.69788762 -6.4375 5.0625 C-5.80473145 4.56500244 -5.17196289 4.06750488 -4.52001953 3.55493164 C-3.01318447 2.37016028 -1.50656861 1.18511016 0 0 Z " fill="#4D4B4B" transform="translate(116,330)"/>
<path d="M0 0 C5.06800039 -0.14423804 9.74062279 0.35734629 14.6875 1.375 C16.08704061 1.65075139 17.48678306 1.92548017 18.88671875 2.19921875 C19.57556152 2.33505371 20.2644043 2.47088867 20.97412109 2.61083984 C25.63199491 3.50559169 30.31762795 4.24620904 35 5 C35 5.66 35 6.32 35 7 C26.94297075 6.70594784 19.2124165 5.61523242 11.3125 4.0625 C10.42723633 3.89266602 9.54197266 3.72283203 8.62988281 3.54785156 C7.7994043 3.37866211 6.96892578 3.20947266 6.11328125 3.03515625 C4.99626831 2.80904663 4.99626831 2.80904663 3.85668945 2.57836914 C2 2 2 2 0 0 Z " fill="#686766" transform="translate(226,414)"/>
<path d="M0 0 C-3.01771716 2.01181144 -4.58728881 2.46318348 -8.078125 3.0703125 C-9.57279297 3.33134766 -9.57279297 3.33134766 -11.09765625 3.59765625 C-12.13792969 3.77167969 -13.17820312 3.94570313 -14.25 4.125 C-15.27480469 4.30675781 -16.29960937 4.48851562 -17.35546875 4.67578125 C-22.64355712 5.58094953 -27.63546264 6.22731091 -33 6 C-33 5.34 -33 4.68 -33 4 C-29.1896065 3.32091103 -25.37640981 2.65902937 -21.5625 2 C-20.49322266 1.80921875 -19.42394531 1.6184375 -18.32226562 1.421875 C-12.11337002 0.35857789 -6.29838048 -0.21193289 0 0 Z " fill="#545252" transform="translate(310,415)"/>
<path d="M0 0 C1.15224028 0.92961422 2.29659176 1.8690125 3.4375 2.8125 C4.07558594 3.33457031 4.71367188 3.85664063 5.37109375 4.39453125 C7 6 7 6 8 9 C8.66 9 9.32 9 10 9 C10 9.66 10 10.32 10 11 C10.66 11 11.32 11 12 11 C11.43434519 18.67846322 10.8123221 26.34343208 10 34 C9.67 34 9.34 34 9 34 C9.04713135 33.41621582 9.0942627 32.83243164 9.14282227 32.23095703 C10.5132108 20.369987 10.5132108 20.369987 6.99609375 9.484375 C4.57890023 6.86414884 4.57890023 6.86414884 1.96875 4.7421875 C1.3190625 4.16726562 0.669375 3.59234375 0 3 C0 2.01 0 1.02 0 0 Z " fill="#6A6868" transform="translate(105,218)"/>
<path d="M0 0 C0 0.99 0 1.98 0 3 C-4.56968918 5.3118664 -9.14744883 7.60633871 -13.73681641 9.87890625 C-15.21429021 10.61078972 -16.69058523 11.34505905 -18.16552734 12.08203125 C-20.18775706 13.08820005 -22.21737621 14.07753148 -24.25 15.0625 C-24.86883057 15.37324463 -25.48766113 15.68398926 -26.12524414 16.00415039 C-29.58688029 17.65813364 -31.36537885 18.15142203 -35 17 C-34.43716309 16.73372803 -33.87432617 16.46745605 -33.29443359 16.19311523 C-22.13694864 10.90996539 -11.00871452 5.58761645 0 0 Z " fill="#CCCBCB" transform="translate(445,50)"/>
<path d="M0 0 C5.70370362 2.91005287 9.62869335 6.36872577 14 11 C15.66245616 12.67086656 17.32969036 14.33698429 19 16 C20.03800975 17.03751102 21.07575999 18.07528173 22.11328125 19.11328125 C22.63857422 19.63857422 23.16386719 20.16386719 23.70507812 20.70507812 C26.13671875 23.13671875 28.56835938 25.56835938 31 28 C28 28 28 28 26.3515625 26.64453125 C25.78179687 26.03996094 25.21203125 25.43539062 24.625 24.8125 C23.70074219 23.84763672 23.70074219 23.84763672 22.7578125 22.86328125 C22.17773438 22.24839844 21.59765625 21.63351563 21 21 C20.175 20.175 19.35 19.35 18.5 18.5 C17.06313909 17.06313909 15.62987499 15.62261764 14.20703125 14.171875 C13.58183594 13.53765625 12.95664063 12.9034375 12.3125 12.25 C11.73113281 11.65703125 11.14976562 11.0640625 10.55078125 10.453125 C9.04486026 8.90358196 9.04486026 8.90358196 7 8 C7 7.34 7 6.68 7 6 C6.21625 5.7525 5.4325 5.505 4.625 5.25 C1.67682892 3.84610901 1.0975223 2.99324263 0 0 Z " fill="#706F6E" transform="translate(128,20)"/>
<path d="M0 0 C0.66 0.33 1.32 0.66 2 1 C2 3.31 2 5.62 2 8 C0.02 8 -1.96 8 -4 8 C-3.67 10.31 -3.34 12.62 -3 15 C-5.97 14.505 -5.97 14.505 -9 14 C-9 15.98 -9 17.96 -9 20 C-9.99 19.67 -10.98 19.34 -12 19 C-12 16.69 -12 14.38 -12 12 C-9 11 -9 11 -6 12 C-6 10.02 -6 8.04 -6 6 C-3.03 6.495 -3.03 6.495 0 7 C-0.185625 6.030625 -0.37125 5.06125 -0.5625 4.0625 C-0.706875 3.051875 -0.85125 2.04125 -1 1 C-0.67 0.67 -0.34 0.34 0 0 Z " fill="#858483" transform="translate(102,122)"/>
<path d="M0 0 C7.08026202 0.14750546 10.11400998 3.1366303 15 8 C15.60070312 8.59377441 16.20140625 9.18754883 16.8203125 9.79931641 C21.24125607 14.17225262 25.63083392 18.57536599 30 23 C29.67 23.66 29.34 24.32 29 25 C26.20775176 22.22878564 23.44967273 19.43282825 20.73046875 16.58984375 C19.5496413 15.37223858 18.3686489 14.15479335 17.1875 12.9375 C16.60935547 12.32583984 16.03121094 11.71417969 15.43554688 11.08398438 C11.30389194 6.86102215 7.4100925 4.38663046 2 2 C1.67 2.99 1.34 3.98 1 5 C0.67 3.35 0.34 1.7 0 0 Z " fill="#2B2A29" transform="translate(113,71)"/>
<path d="M0 0 C0.66 0.33 1.32 0.66 2 1 C-1.99922283 7.39875653 -6.98503326 11.50337438 -13 16 C-12.67 17.98 -12.34 19.96 -12 22 C-12.99 21.67 -13.98 21.34 -15 21 C-15.99609375 18.4921875 -15.99609375 18.4921875 -16 15 C-13.73439459 11.96098261 -10.92450678 9.59249456 -8.0625 7.125 C-7.29486328 6.43664062 -6.52722656 5.74828125 -5.73632812 5.0390625 C-3.83866489 3.34177364 -1.92707139 1.66372715 0 0 Z " fill="#3D3C3B" transform="translate(428,184)"/>
<path d="M0 0 C0.66 0.33 1.32 0.66 2 1 C1.01 1.33 0.02 1.66 -1 2 C-1.268125 2.969375 -1.53625 3.93875 -1.8125 4.9375 C-3 8 -3 8 -5.8125 9.375 C-8.65867966 9.93307444 -11.11368493 10.16978324 -14 10 C-13.76953125 8.1328125 -13.76953125 8.1328125 -13 6 C-11.07421875 4.8046875 -11.07421875 4.8046875 -8.6875 3.875 C-7.90761719 3.56304687 -7.12773437 3.25109375 -6.32421875 2.9296875 C-5.55722656 2.62289062 -4.79023438 2.31609375 -4 2 C-3.28457031 1.61070313 -2.56914062 1.22140625 -1.83203125 0.8203125 C-1.22746094 0.54960938 -0.62289062 0.27890625 0 0 Z " fill="#E6E6E6" transform="translate(185,98)"/>
<path d="M0 0 C0.66 0 1.32 0 2 0 C6.12409457 4.41867275 9.01916871 9.77758358 12 15 C12.43183594 15.75410156 12.86367188 16.50820312 13.30859375 17.28515625 C16.09918263 22.45112528 16.09918263 22.45112528 15.59765625 25.2265625 C15.40042969 25.81179687 15.20320313 26.39703125 15 27 C14.68772461 26.43079834 14.37544922 25.86159668 14.05371094 25.27514648 C12.61976477 22.66225457 11.184889 20.04987425 9.75 17.4375 C9.25886719 16.54224609 8.76773437 15.64699219 8.26171875 14.72460938 C5.55077883 9.79069873 2.81036497 4.87799062 0 0 Z " fill="#4C4C4B" transform="translate(360,195)"/>
<path d="M0 0 C0.64106689 0.11972168 1.28213379 0.23944336 1.94262695 0.36279297 C9.34097195 1.72813292 16.75684003 2.94967593 24.1875 4.125 C25.33025391 4.30675781 26.47300781 4.48851562 27.65039062 4.67578125 C30.43342348 5.11827183 33.21662626 5.5596597 36 6 C36 6.33 36 6.66 36 7 C23.28416073 7.65771582 11.79783735 6.01747106 0 1 C0 0.67 0 0.34 0 0 Z " fill="#353534" transform="translate(231,371)"/>
<path d="M0 0 C2.12028095 3.18042143 3.39652906 6.39556999 4.75 9.9375 C7.13161053 16.07734429 9.87010915 21.90163127 12.99609375 27.70703125 C13.49302734 28.84205078 13.49302734 28.84205078 14 30 C13.67 30.66 13.34 31.32 13 32 C0.04974716 11.24285714 0.04974716 11.24285714 0 0 Z " fill="#343433" transform="translate(160,292)"/>
<path d="M0 0 C1 3 1 3 -0.43359375 6.35546875 C-1.09148807 7.6380304 -1.75989743 8.91524057 -2.4375 10.1875 C-2.77587891 10.84169922 -3.11425781 11.49589844 -3.46289062 12.16992188 C-4.29969098 13.78459299 -5.14869746 15.39292763 -6 17 C-3.36 19.64 -0.72 22.28 2 25 C-1.86817267 25 -2.54640451 23.91469484 -5.25 21.25 C-5.97703125 20.55390625 -6.7040625 19.8578125 -7.453125 19.140625 C-9 17 -9 17 -8.98828125 15.15625 C-7.55510422 12.0293183 -5.7801822 9.1460981 -3.9375 6.25 C-3.56044922 5.64800781 -3.18339844 5.04601562 -2.79492188 4.42578125 C-1.86806837 2.94750857 -0.93467611 1.47333911 0 0 Z " fill="#252524" transform="translate(410,331)"/>
<path d="M0 0 C0.99 0.33 1.98 0.66 3 1 C-11.90384145 16.21433815 -11.90384145 16.21433815 -18 19 C-14.90550412 13.85813563 -11.19907418 10.12193249 -6.75 6.125 C-6.1003125 5.53203125 -5.450625 4.9390625 -4.78125 4.328125 C-3.19267601 2.8797193 -1.59705068 1.43905369 0 0 Z " fill="#383736" transform="translate(446,168)"/>
<path d="M0 0 C2 1 2 1 2.61230469 2.75488281 C3.35519792 7.056927 3.22707931 11.39506882 3.25 15.75 C3.270625 16.71421875 3.29125 17.6784375 3.3125 18.671875 C3.34602886 24.84118563 2.53656754 29.36614999 0 35 C-0.33 35 -0.66 35 -1 35 C-0.85831863 33.56208484 -0.71148957 32.1246763 -0.5625 30.6875 C-0.48128906 29.88699219 -0.40007812 29.08648437 -0.31640625 28.26171875 C0 26 0 26 1 23 C1.36761819 15.29083029 0.96704536 7.65001957 0 0 Z " fill="#323231" transform="translate(503,444)"/>
<path d="M0 0 C5.36689453 0.38119998 10.58506679 0.8047609 15.8125 2.125 C21.94802248 3.58531974 27.11422069 1.76573379 33 0 C33 0.66 33 1.32 33 2 C26.95906816 5.60964322 22.8403841 6.40642787 15.99609375 4.78515625 C15.00738281 4.52605469 14.01867187 4.26695313 13 4 C10.60485592 3.45529368 8.20901764 2.913631 5.8125 2.375 C3.874393 1.91924026 1.93666614 1.46184407 0 1 C0 0.67 0 0.34 0 0 Z " fill="#8E8C8B" transform="translate(294,108)"/>
<path d="M0 0 C1.74216797 0.05414063 1.74216797 0.05414063 3.51953125 0.109375 C4.39996094 0.15578125 5.28039062 0.2021875 6.1875 0.25 C6.1875 0.91 6.1875 1.57 6.1875 2.25 C5.52363281 2.21519531 4.85976563 2.18039062 4.17578125 2.14453125 C-2.83514576 1.87563142 -2.83514576 1.87563142 -8.8125 5.25 C-9.83050576 6.56963709 -10.83498365 7.90009646 -11.8125 9.25 C-12.4725 9.25 -13.1325 9.25 -13.8125 9.25 C-14.1425 12.22 -14.4725 15.19 -14.8125 18.25 C-15.1425 18.25 -15.4725 18.25 -15.8125 18.25 C-16.23314893 12.15059045 -15.90214656 9.11336347 -11.8125 4.25 C-7.86879747 0.41738768 -5.45871237 -0.22055404 0 0 Z " fill="#828280" transform="translate(465.8125,445.75)"/>
<path d="M0 0 C1.1055189 0.93590504 2.20935453 1.87379858 3.3125 2.8125 C3.92738281 3.33457031 4.54226563 3.85664063 5.17578125 4.39453125 C7 6 7 6 8.58203125 7.609375 C10.49425081 9.4847198 12.70152435 10.63185973 15 12 C18.00223862 14.23422409 19.91178461 15.86767691 22 19 C21.67 19.99 21.34 20.98 21 22 C20.40832031 21.31292969 19.81664062 20.62585938 19.20703125 19.91796875 C18.41683594 19.01691406 17.62664062 18.11585938 16.8125 17.1875 C16.03519531 16.29417969 15.25789063 15.40085937 14.45703125 14.48046875 C12.08303065 12.08382268 9.90443354 10.66632565 7 9 C4.98046875 7.24609375 4.98046875 7.24609375 3.1875 5.4375 C2.58292969 4.83808594 1.97835938 4.23867188 1.35546875 3.62109375 C0 2 0 2 0 0 Z " fill="#696968" transform="translate(400,347)"/>
<path d="M0 0 C0.33 0 0.66 0 1 0 C1 9.57 1 19.14 1 29 C0.34 29 -0.32 29 -1 29 C-1 31.97 -1 34.94 -1 38 C-1.66 38 -2.32 38 -3 38 C-2.67 33.71 -2.34 29.42 -2 25 C-1.34 25 -0.68 25 0 25 C0 16.75 0 8.5 0 0 Z " fill="#A1A1A1" transform="translate(384,249)"/>
<path d="M0 0 C1.13591405 3.33958732 0.86125931 5.16538247 -0.375 8.4375 C-2.47089276 14.06898756 -3.17007011 19.31392884 -3.5625 25.3125 C-3.64628906 26.56675781 -3.73007813 27.82101563 -3.81640625 29.11328125 C-3.87699219 30.06589844 -3.93757812 31.01851562 -4 32 C-4.33 32 -4.66 32 -5 32 C-5.78659818 11.11144836 -5.78659818 11.11144836 -1 1 C-0.67 0.67 -0.34 0.34 0 0 Z " fill="#737171" transform="translate(11,76)"/>
<path d="M0 0 C4.23017461 2.65615615 7.48595398 5.40327054 11 9 C11.96352768 9.96615803 12.92839911 10.93097761 13.89453125 11.89453125 C16.59635417 14.59635417 19.29817708 17.29817708 22 20 C21.67 20.66 21.34 21.32 21 22 C20.443125 21.43152344 19.88625 20.86304688 19.3125 20.27734375 C14.92295073 15.83589103 10.45912804 11.57740681 5.73046875 7.5 C3.71301404 5.75123565 1.77514504 3.99703817 0 2 C0 1.34 0 0.68 0 0 Z " fill="#1B1B1A" transform="translate(422,367)"/>
<path d="M0 0 C3.51547883 0.29295657 4.72523271 0.69290714 7.125 3.375 C7.74375 4.24125 8.3625 5.1075 9 6 C9.53625 6.515625 10.0725 7.03125 10.625 7.5625 C13.08105849 10.13019751 13.96341294 12.19508474 14.125 15.75 C14.08375 16.4925 14.0425 17.235 14 18 C12.09161434 15.61451792 10.6648321 13.35360477 9.25 10.625 C7.24535024 6.99157232 4.62856014 4.7081544 1.390625 2.1640625 C0.93171875 1.77992188 0.4728125 1.39578125 0 1 C0 0.67 0 0.34 0 0 Z " fill="#414140" transform="translate(489,429)"/>
<path d="M0 0 C0.99 0.33 1.98 0.66 3 1 C3 1.99 3 2.98 3 4 C3.31088368 5.67099977 3.64080332 7.33871537 4 9 C2.02 9 0.04 9 -2 9 C-2 10.65 -2 12.3 -2 14 C-3.32 13.67 -4.64 13.34 -6 13 C-5.34 12.67 -4.68 12.34 -4 12 C-4.33 10.02 -4.66 8.04 -5 6 C-3.02 6 -1.04 6 1 6 C0.67 4.02 0.34 2.04 0 0 Z " fill="#818080" transform="translate(89,92)"/>
<path d="M0 0 C5.64255118 0.38914146 9.95898656 1.42805437 15 4 C15.33 4.66 15.66 5.32 16 6 C14.04096255 5.52372025 12.08278903 5.04388577 10.125 4.5625 C9.03445312 4.29566406 7.94390625 4.02882813 6.8203125 3.75390625 C4 3 4 3 2 2 C2 3.98 2 5.96 2 8 C1.34 8 0.68 8 0 8 C-0.38063221 5.6739143 -0.71269945 3.33944736 -1 1 C-0.67 0.67 -0.34 0.34 0 0 Z " fill="#858383" transform="translate(130,94)"/>
<path d="M0 0 C4 0 4 0 6.25 2.1875 C9.25999351 7.20015852 8.87671065 13.40644113 8 19 C6.55533121 21.49942696 5.43437338 22.35679797 3 24 C2.34 23.67 1.68 23.34 1 23 C1.639375 22.21625 2.27875 21.4325 2.9375 20.625 C6.16145205 16.52178829 6.34903314 14.23549711 6 9 C4.52608532 5.35030652 3.00091319 2.5722113 0 0 Z " fill="#8C8B88" transform="translate(472,448)"/>
<path d="M0 0 C0.66 0 1.32 0 2 0 C2.33 2.31 2.66 4.62 3 7 C0.03 6.505 0.03 6.505 -3 6 C-2.67 7.98 -2.34 9.96 -2 12 C-4.97 11.505 -4.97 11.505 -8 11 C-7.67 10.34 -7.34 9.68 -7 9 C-6.34 9 -5.68 9 -5 9 C-5 7.35 -5 5.7 -5 4 C-3.35 4 -1.7 4 0 4 C0 2.68 0 1.36 0 0 Z " fill="#898787" transform="translate(84,141)"/>
<path d="M0 0 C4.19491443 0.5049434 6.13484438 2.79749207 9 5.75 C9.845625 6.61109375 10.69125 7.4721875 11.5625 8.359375 C13.83696515 10.82337891 15.94334701 13.35301143 18 16 C17.67 16.66 17.34 17.32 17 18 C15.29115995 16.37660195 13.62553283 14.70680947 12 13 C12 12.34 12 11.68 12 11 C11.42765625 10.75378906 10.8553125 10.50757813 10.265625 10.25390625 C7.63481257 8.79788765 5.85191095 7.08222766 3.75 4.9375 C3.04359375 4.22464844 2.3371875 3.51179688 1.609375 2.77734375 C0 1 0 1 0 0 Z " fill="#A5A3A2" transform="translate(157,49)"/>
<path d="M0 0 C0.99 0.33 1.98 0.66 3 1 C1.75004375 4.74986874 0.09908146 5.62163516 -3 8 C-3.66 8.66 -4.32 9.32 -5 10 C-7.19855881 12.19855881 -9.54749505 14.09249615 -12 16 C-12.66 15.67 -13.32 15.34 -14 15 C-13.07316406 14.08476563 -12.14632813 13.16953125 -11.19140625 12.2265625 C-9.98163961 11.0261739 -8.77201135 9.82564583 -7.5625 8.625 C-6.95083984 8.02171875 -6.33917969 7.4184375 -5.70898438 6.796875 C-5.12568359 6.21679688 -4.54238281 5.63671875 -3.94140625 5.0390625 C-3.40201416 4.50490723 -2.86262207 3.97075195 -2.30688477 3.42041016 C-0.89153023 2.01347612 -0.89153023 2.01347612 0 0 Z " fill="#403F3F" transform="translate(483,33)"/>
<path d="M0 0 C0 0.99 0 1.98 0 3 C-0.6290625 3.24234375 -1.258125 3.4846875 -1.90625 3.734375 C-6.18824943 5.41106152 -10.32847446 7.12126825 -14.375 9.3125 C-18.07375628 11.03433482 -18.45858043 11.20907496 -22 10 C-18.71158124 8.32686677 -15.41875318 6.66260393 -12.125 5 C-11.18785156 4.52304688 -10.25070312 4.04609375 -9.28515625 3.5546875 C-8.38925781 3.10351562 -7.49335938 2.65234375 -6.5703125 2.1875 C-5.74289551 1.76855469 -4.91547852 1.34960938 -4.06298828 0.91796875 C-2 0 -2 0 0 0 Z " fill="#B8B7B6" transform="translate(407,69)"/>
<path d="M0 0 C0.625 1.8515625 0.625 1.8515625 1 4 C-1 6.375 -1 6.375 -4 9 C-4.59039062 9.53367187 -5.18078125 10.06734375 -5.7890625 10.6171875 C-10.54751276 14.84917092 -10.54751276 14.84917092 -14 16 C-12.42840852 12.14245727 -9.98922513 9.85637068 -7 7 C-5.72652735 5.73181147 -4.45576341 4.46089807 -3.1875 3.1875 C-2.125 2.125 -1.0625 1.0625 0 0 Z " fill="#606060" transform="translate(358,334)"/>
<path d="M0 0 C0.66 0 1.32 0 2 0 C0.59696255 3.8082445 -1.15687532 7.12592761 -3.3125 10.5625 C-4.17294922 11.95662109 -4.17294922 11.95662109 -5.05078125 13.37890625 C-7.09763942 16.13129469 -9.24159343 17.98223272 -12 20 C-9.92864049 15.74614639 -7.48636408 11.77080592 -5 7.75 C-4.54882812 7.00492187 -4.09765625 6.25984375 -3.6328125 5.4921875 C-3.19710938 4.78835938 -2.76140625 4.08453125 -2.3125 3.359375 C-1.91675781 2.71452148 -1.52101563 2.06966797 -1.11328125 1.40527344 C-0.74589844 0.9415332 -0.37851562 0.47779297 0 0 Z " fill="#7B7B78" transform="translate(371,314)"/>
<path d="M0 0 C0.66 0.33 1.32 0.66 2 1 C0.88200014 2.33920838 -0.24461897 3.67122556 -1.375 5 C-2.31472656 6.11375 -2.31472656 6.11375 -3.2734375 7.25 C-4.12808594 8.11625 -4.12808594 8.11625 -5 9 C-5.66 9 -6.32 9 -7 9 C-7.226875 9.639375 -7.45375 10.27875 -7.6875 10.9375 C-9 13 -9 13 -11.625 13.75 C-12.40875 13.8325 -13.1925 13.915 -14 14 C-10.12814498 9.03918575 -5.79125711 5.06361292 -1 1 C-0.67 0.67 -0.34 0.34 0 0 Z " fill="#474646" transform="translate(461,154)"/>
<path d="M0 0 C0.33 0.99 0.66 1.98 1 3 C1.66 3 2.32 3 3 3 C2.67 3.99 2.34 4.98 2 6 C0.35 6 -1.3 6 -3 6 C-3.33 7.32 -3.66 8.64 -4 10 C-4.99 9.67 -5.98 9.34 -7 9 C-7 6.66666667 -7 4.33333333 -7 2 C-4.69 2.33 -2.38 2.66 0 3 C0 2.01 0 1.02 0 0 Z " fill="#70706F" transform="translate(113,73)"/>
<path d="M0 0 C0.33 0 0.66 0 1 0 C2.50974035 7.09038772 3.28307925 13.75002578 3 21 C-0.77186808 13.79048 -1.3522904 7.89445207 0 0 Z " fill="#575756" transform="translate(157,275)"/>
<path d="M0 0 C0.33 0.99 0.66 1.98 1 3 C-0.51171875 5.33984375 -0.51171875 5.33984375 -2.6875 7.9375 C-3.39261719 8.79214844 -4.09773437 9.64679688 -4.82421875 10.52734375 C-6.80583667 12.779344 -8.85065325 14.90887483 -11 17 C-11 12.99721935 -9.47550007 11.51202411 -7.125 8.3125 C-6.04605469 6.82169922 -6.04605469 6.82169922 -4.9453125 5.30078125 C-4.30335938 4.54152344 -3.66140625 3.78226563 -3 3 C-2.34 3 -1.68 3 -1 3 C-0.67 2.01 -0.34 1.02 0 0 Z " fill="#545452" transform="translate(184,187)"/>
<path d="M0 0 C0.33 0 0.66 0 1 0 C1.74713783 6.72424044 -0.48243563 12.27281068 -4 18 C-4.99 18.33 -5.98 18.66 -7 19 C-6.67 17.68 -6.34 16.36 -6 15 C-5.34 15 -4.68 15 -4 15 C-3.896875 14.01 -3.79375 13.02 -3.6875 12 C-3.09191294 7.71702837 -1.61404973 4.00003629 0 0 Z " fill="#696867" transform="translate(416,313)"/>
<path d="M0 0 C0 1.33333333 0 2.66666667 0 4 C1.65 4 3.3 4 5 4 C0.86687528 7.24745514 -1.63932628 9 -7 9 C-6.82374165 6.62051228 -6.30280227 5.29774151 -4.59765625 3.62109375 C-3.09350908 2.37884514 -1.54870149 1.18623944 0 0 Z " fill="#949393" transform="translate(62,486)"/>
<path d="M0 0 C2.475 0.99 2.475 0.99 5 2 C4.01 2.33 3.02 2.66 2 3 C2.33 4.98 2.66 6.96 3 9 C0.69 9 -1.62 9 -4 9 C-4.33 9.66 -4.66 10.32 -5 11 C-5.33 9.35 -5.66 7.7 -6 6 C-3.69 6.33 -1.38 6.66 1 7 C0.67 4.69 0.34 2.38 0 0 Z " fill="#414040" transform="translate(56,126)"/>
<path d="M0 0 C0.66 1.32 1.32 2.64 2 4 C0.02 4 -1.96 4 -4 4 C-3.67 5.65 -3.34 7.3 -3 9 C-4.8125 9.6875 -4.8125 9.6875 -7 10 C-8.75 8.5625 -8.75 8.5625 -10 7 C-8.68 7.33 -7.36 7.66 -6 8 C-6 6.02 -6 4.04 -6 2 C-4.02 2 -2.04 2 0 2 C0 1.34 0 0.68 0 0 Z " fill="#787776" transform="translate(68,119)"/>
<path d="M0 0 C0.99 0.33 1.98 0.66 3 1 C1.33333333 2.66666667 -0.33333333 4.33333333 -2 6 C-2.825 6.845625 -3.65 7.69125 -4.5 8.5625 C-6.88851225 10.89129944 -9.360462 12.96378497 -12 15 C-10.38462556 11.10082032 -7.72075127 8.28706228 -4.875 5.25 C-4.40707031 4.74339844 -3.93914062 4.23679687 -3.45703125 3.71484375 C-2.30873459 2.47280859 -1.15491328 1.23588506 0 0 Z " fill="#646261" transform="translate(127,415)"/>
<path d="M0 0 C2 2 2 2 2.265625 3.8828125 C2.22824761 9.24646803 1.49918237 13.84656059 0 19 C-0.33 19 -0.66 19 -1 19 C-1.09507063 12.56688704 -1.15316726 6.34241995 0 0 Z " fill="#434242" transform="translate(424,278)"/>
<path d="M0 0 C0 0.99 0 1.98 0 3 C-2.2898234 4.0044134 -4.5816599 5.00367612 -6.875 6 C-7.52597656 6.28617187 -8.17695312 6.57234375 -8.84765625 6.8671875 C-13.7734375 9 -13.7734375 9 -16 9 C-15 6 -15 6 -12.890625 4.90234375 C-12.01921875 4.58394531 -11.1478125 4.26554687 -10.25 3.9375 C-9.38890625 3.61652344 -8.5278125 3.29554688 -7.640625 2.96484375 C-6.76921875 2.64644531 -5.8978125 2.32804687 -5 2 C-3.33127491 1.33850262 -1.66397001 0.67336916 0 0 Z " fill="#888786" transform="translate(91,477)"/>
<path d="M0 0 C-2.22324926 1.1793149 -4.45246639 2.34340918 -6.6875 3.5 C-7.31333984 3.83386719 -7.93917969 4.16773438 -8.58398438 4.51171875 C-12.20481317 6.3695262 -14.91404255 7.43750214 -19 7 C-15.85488067 4.42327573 -12.67836053 2.82607507 -8.9375 1.25 C-7.89464844 0.80140625 -6.85179687 0.3528125 -5.77734375 -0.109375 C-3 -1 -3 -1 0 0 Z " fill="#6A6868" transform="translate(197,429)"/>
<path d="M0 0 C5.03681497 3.07122864 8.94510767 6.72916666 13 11 C12.67 11.99 12.34 12.98 12 14 C9.99387601 12.04761147 7.99507567 10.08862178 6 8.125 C5.42765625 7.56941406 4.8553125 7.01382813 4.265625 6.44140625 C2.80549218 4.99865596 1.39850702 3.5025626 0 2 C0 1.34 0 0.68 0 0 Z " fill="#434242" transform="translate(60,183)"/>
<path d="M0 0 C6.67353409 0.28398017 10.71077185 3.07805532 16 7 C14.390625 7.7109375 14.390625 7.7109375 12 8 C8.984375 6.6015625 8.984375 6.6015625 5.75 4.625 C4.67234375 3.97789062 3.5946875 3.33078125 2.484375 2.6640625 C1.66453125 2.11492187 0.8446875 1.56578125 0 1 C0 0.67 0 0.34 0 0 Z " fill="#454544" transform="translate(319,161)"/>
<path d="M0 0 C3.51463012 1.89980007 5.89550678 3.56635317 8 7 C8 7.66 8 8.32 8 9 C8.78375 9.28875 9.5675 9.5775 10.375 9.875 C13 11 13 11 15 13 C11.19232469 12.72959987 9.37004953 12.32082275 6.4453125 9.78515625 C5.29675781 8.43744141 5.29675781 8.43744141 4.125 7.0625 C3.34382813 6.16660156 2.56265625 5.27070313 1.7578125 4.34765625 C0 2 0 2 0 0 Z " fill="#434242" transform="translate(15,136)"/>
<path d="M0 0 C4.31730413 0.47409648 6.33647461 3.03396703 9.25 6.0625 C10.14203125 6.98160156 11.0340625 7.90070313 11.953125 8.84765625 C12.62859375 9.55792969 13.3040625 10.26820313 14 11 C13.67 11.66 13.34 12.32 13 13 C8.18876004 8.96476648 3.86757281 4.95532767 0 0 Z " fill="#6D6C6A" transform="translate(404,451)"/>
<path d="M0 0 C3.96528893 1.73916181 6.30439938 4.21744661 9.21875 7.34375 C10.93379614 9.09428945 10.93379614 9.09428945 13.171875 10.0859375 C15 11 15 11 15.75 13.125 C15.87375 14.053125 15.87375 14.053125 16 15 C11.69422496 13.33830526 8.90988145 10.16919694 5.75 6.9375 C5.19570313 6.38255859 4.64140625 5.82761719 4.0703125 5.25585938 C0 1.14043257 0 1.14043257 0 0 Z " fill="#7E7E7E" transform="translate(432,379)"/>
<path d="M0 0 C13.83803487 11.29635499 13.83803487 11.29635499 15 18 C14.34 18 13.68 18 13 18 C12.608125 17.0925 12.21625 16.185 11.8125 15.25 C9.87347986 11.77313631 8.12853403 10.38364497 5 8 C0 2.74114441 0 2.74114441 0 0 Z " fill="#817F7E" transform="translate(236,90)"/>
<path d="M0 0 C1.07765625 0.00902344 2.1553125 0.01804687 3.265625 0.02734375 C4.08546875 0.03894531 4.9053125 0.05054688 5.75 0.0625 C5.42 0.7225 5.09 1.3825 4.75 2.0625 C2.20058627 2.37491371 -0.25361513 2.57553421 -2.8125 2.6875 C-3.87887695 2.74550781 -3.87887695 2.74550781 -4.96679688 2.8046875 C-6.72742425 2.89921783 -8.48867728 2.98195817 -10.25 3.0625 C-10.25 2.4025 -10.25 1.7425 -10.25 1.0625 C-6.78777385 -0.00473961 -3.60960734 -0.03923486 0 0 Z " fill="#525050" transform="translate(287.25,417.9375)"/>
<path d="M0 0 C0 0.66 0 1.32 0 2 C-2.265625 3.76171875 -2.265625 3.76171875 -5.25 5.6875 C-6.22453125 6.33074219 -7.1990625 6.97398437 -8.203125 7.63671875 C-11 9 -11 9 -13.359375 8.70703125 C-13.90078125 8.47371094 -14.4421875 8.24039062 -15 8 C-12.8782637 6.66121428 -10.75294812 5.32884524 -8.625 4 C-8.02171875 3.6184375 -7.4184375 3.236875 -6.796875 2.84375 C-2.2265625 0 -2.2265625 0 0 0 Z " fill="#50504E" transform="translate(335,357)"/>
<path d="M0 0 C0.33 0 0.66 0 1 0 C2.81774185 7.09784913 4.43230491 13.65081658 4 21 C3.67 21 3.34 21 3 21 C0.71387222 13.84224277 -0.44032071 7.51806849 0 0 Z " fill="#3B3A3A" transform="translate(422,224)"/>
<path d="M0 0 C0.66 0.33 1.32 0.66 2 1 C0.04761147 3.00612399 -1.91137822 5.00492433 -3.875 7 C-4.43058594 7.57234375 -4.98617188 8.1446875 -5.55859375 8.734375 C-7.00134404 10.19450782 -8.4974374 11.60149298 -10 13 C-10.66 13 -11.32 13 -12 13 C-10.44997253 9.11602311 -7.99523379 6.97020381 -4.875 4.25 C-3.96492188 3.45078125 -3.05484375 2.6515625 -2.1171875 1.828125 C-1.06917969 0.92320313 -1.06917969 0.92320313 0 0 Z " fill="#2C2B2B" transform="translate(399,123)"/>
<path d="M0 0 C0.66 0.33 1.32 0.66 2 1 C2.40729228 3.32156597 2.74438677 5.6568787 3 8 C0.03 7.505 0.03 7.505 -3 7 C-3 8.98 -3 10.96 -3 13 C-5 11 -5 11 -5.125 7.875 C-5.08375 6.92625 -5.0425 5.9775 -5 5 C-3.35 5 -1.7 5 0 5 C0 3.35 0 1.7 0 0 Z " fill="#787676" transform="translate(118,106)"/>
<path d="M0 0 C0 0.66 0 1.32 0 2 C-2.62035018 3.36389525 -5.24556999 4.71632173 -7.875 6.0625 C-8.99455078 6.64741211 -8.99455078 6.64741211 -10.13671875 7.24414062 C-10.85214844 7.60830078 -11.56757813 7.97246094 -12.3046875 8.34765625 C-13.2944458 8.85824585 -13.2944458 8.85824585 -14.30419922 9.37915039 C-14.86381348 9.58403076 -15.42342773 9.78891113 -16 10 C-16.66 9.67 -17.32 9.34 -18 9 C-15.56721456 7.49185257 -13.12933973 5.99335653 -10.6875 4.5 C-9.99720703 4.07074219 -9.30691406 3.64148438 -8.59570312 3.19921875 C-7.92861328 2.79316406 -7.26152344 2.38710938 -6.57421875 1.96875 C-5.96151123 1.59169922 -5.34880371 1.21464844 -4.7175293 0.82617188 C-3 0 -3 0 0 0 Z " fill="#484746" transform="translate(351,397)"/>
<path d="M0 0 C0.66 0 1.32 0 2 0 C1.43434519 7.67846322 0.8123221 15.34343208 0 23 C-0.33 23 -0.66 23 -1 23 C-1.0270817 20.27076612 -1.04687847 17.54180363 -1.0625 14.8125 C-1.07087891 14.04357422 -1.07925781 13.27464844 -1.08789062 12.48242188 C-1.10494826 8.50799287 -0.95801825 4.88487716 0 1 C0 0.67 0 0.34 0 0 Z " fill="#A2A1A1" transform="translate(115,229)"/>
<path d="M0 0 C0.66 0.33 1.32 0.66 2 1 C-0.97519337 5.69165109 -4.31393365 9.84703191 -8 14 C-8.33 13.34 -8.66 12.68 -9 12 C-6.77824085 7.42578999 -3.35580981 3.7684984 0 0 Z " fill="#3E3D3D" transform="translate(437,81)"/>
<path d="M0 0 C6.93 0.495 6.93 0.495 14 1 C14 1.66 14 2.32 14 3 C9.38 3 4.76 3 0 3 C0 2.01 0 1.02 0 0 Z " fill="#A4A3A2" transform="translate(439,138)"/>
<path d="M0 0 C5.28 0.33 10.56 0.66 16 1 C16 1.66 16 2.32 16 3 C14.27119018 3.05449838 12.54187288 3.09301688 10.8125 3.125 C9.84957031 3.14820313 8.88664062 3.17140625 7.89453125 3.1953125 C4.87187222 2.9913544 2.73230015 2.26874632 0 1 C0 0.67 0 0.34 0 0 Z " fill="#A5A4A4" transform="translate(97,383)"/>
<path d="M0 0 C3.16115776 1.36983503 3.9927092 1.9890638 6 5 C6 5.99 6 6.98 6 8 C6.66 8 7.32 8 8 8 C8.33 9.65 8.66 11.3 9 13 C5.48026899 9.74098981 2.47239725 6.1139069 0 2 C0 1.34 0 0.68 0 0 Z " fill="#7D7C79" transform="translate(424,471)"/>
<path d="M0 0 C5.4185766 -0.22577402 9.77487721 0.53329887 15 2 C15 2.66 15 3.32 15 4 C9.72684667 3.5547115 4.98229776 2.91626837 0 1 C0 0.67 0 0.34 0 0 Z " fill="#5F5E5D" transform="translate(226,414)"/>
<path d="M0 0 C0.66 0.33 1.32 0.66 2 1 C0.9790625 2.3303125 0.9790625 2.3303125 -0.0625 3.6875 C-2.29824333 6.77798927 -2.29824333 6.77798927 -1.75 9.875 C-1.5025 10.57625 -1.255 11.2775 -1 12 C-1.99 11.67 -2.98 11.34 -4 11 C-4.8125 8.3125 -4.8125 8.3125 -5 5 C-2.5625 2.125 -2.5625 2.125 0 0 Z " fill="#5C5B5B" transform="translate(417,194)"/>
<path d="M0 0 C0.66 0.33 1.32 0.66 2 1 C1.38511719 1.33773437 0.77023437 1.67546875 0.13671875 2.0234375 C-0.67152344 2.46945313 -1.47976563 2.91546875 -2.3125 3.375 C-3.11300781 3.81585938 -3.91351563 4.25671875 -4.73828125 4.7109375 C-6.53527943 5.73513335 -8.27900708 6.85267138 -10 8 C-12.1875 7.625 -12.1875 7.625 -14 7 C-11.71296692 5.80274117 -9.42115138 4.61702982 -7.125 3.4375 C-6.14853516 2.92413086 -6.14853516 2.92413086 -5.15234375 2.40039062 C-3.46470143 1.53917109 -1.73420407 0.76313297 0 0 Z " fill="#A7A5A5" transform="translate(364,89)"/>
<path d="M0 0 C-5.78571429 4.82142857 -5.78571429 4.82142857 -9 6 C-9.99 5.67 -10.98 5.34 -12 5 C-8.77464852 1.23708994 -4.90542108 -1.63514036 0 0 Z " fill="#7B7A79" transform="translate(209,422)"/>
<path d="M0 0 C2.52940738 3.13164723 4.44920018 6.27808042 6 10 C5.578125 12.1875 5.578125 12.1875 5 14 C4.1533966 12.61217515 3.32324661 11.21430603 2.5 9.8125 C2.0359375 9.03519531 1.571875 8.25789062 1.09375 7.45703125 C-0.10729647 4.75896614 -0.20741043 2.9193018 0 0 Z " fill="#616060" transform="translate(370,208)"/>
<path d="M0 0 C0.99 0.33 1.98 0.66 3 1 C-0.49359465 4.59634744 -4.11098131 7.83451967 -8 11 C-7.43040847 7.37386801 -6.07625466 5.74482259 -3.4375 3.25 C-2.79683594 2.63640625 -2.15617188 2.0228125 -1.49609375 1.390625 C-1.00238281 0.93171875 -0.50867188 0.4728125 0 0 Z " fill="#2F2E2D" transform="translate(193,178)"/>
<path d="M0 0 C3.78520613 0.54074373 5.59177555 2.07572746 8 5 C8 5.99 8 6.98 8 8 C4.63820226 6.55922954 2.40843732 4.75249979 0 2 C0 1.34 0 0.68 0 0 Z " fill="#3A3939" transform="translate(152,105)"/>
<path d="M0 0 C1 3 1 3 0.109375 5.2265625 C-0.33921875 6.01804687 -0.7878125 6.80953125 -1.25 7.625 C-1.68828125 8.42164063 -2.1265625 9.21828125 -2.578125 10.0390625 C-4 12 -4 12 -7 13 C-5.35821735 8.22390502 -2.73453298 4.20617096 0 0 Z " fill="#41403F" transform="translate(410,331)"/>
<path d="M0 0 C0.66 0 1.32 0 2 0 C0.46356148 3.68069887 -1.78150945 5.98775204 -4.625 8.75 C-5.85089844 9.94882812 -5.85089844 9.94882812 -7.1015625 11.171875 C-7.72804688 11.77515625 -8.35453125 12.3784375 -9 13 C-9.66 12.67 -10.32 12.34 -11 12 C-10.37351562 11.38511719 -9.74703125 10.77023438 -9.1015625 10.13671875 C-8.28429687 9.32847656 -7.46703125 8.52023438 -6.625 7.6875 C-5.40683594 6.48673828 -5.40683594 6.48673828 -4.1640625 5.26171875 C-1.87395158 2.99990063 -1.87395158 2.99990063 0 0 Z " fill="#E0DFDF" transform="translate(34,49)"/>
<path d="M0 0 C0.66 0.66 1.32 1.32 2 2 C1.01 3.485 1.01 3.485 0 5 C1.98 5.66 3.96 6.32 6 7 C6 7.33 6 7.66 6 8 C3.03 7.67 0.06 7.34 -3 7 C-2.67 5.35 -2.34 3.7 -2 2 C-1.34 2 -0.68 2 0 2 C0 1.34 0 0.68 0 0 Z " fill="#797877" transform="translate(73,195)"/>
<path d="M0 0 C0 3 0 3 -1.3125 4.375 C-1.869375 4.91125 -2.42625 5.4475 -3 6 C-3.495 6.845625 -3.99 7.69125 -4.5 8.5625 C-6 11 -6 11 -9 13 C-8.4352699 9.09170915 -6.57868029 7.10079777 -3.9375 4.25 C-3.20402344 3.45078125 -2.47054688 2.6515625 -1.71484375 1.828125 C-1.14894531 1.22484375 -0.58304687 0.6215625 0 0 Z " fill="#545352" transform="translate(420,99)"/>
<path d="M0 0 C3.37462715 0.54723683 5.08235 1.0549 8 3 C5.03 2.505 5.03 2.505 2 2 C2 3.98 2 5.96 2 8 C0.68 7.34 -0.64 6.68 -2 6 C-1.34 6 -0.68 6 0 6 C0 4.02 0 2.04 0 0 Z " fill="#5C5B5B" transform="translate(79,104)"/>
<path d="M0 0 C0.99 0 1.98 0 3 0 C3 0.66 3 1.32 3 2 C-2.00932754 5.00559652 -5.32723489 5.29341888 -11 5 C-11 4.67 -11 4.34 -11 4 C-10.28972656 3.79503906 -9.57945312 3.59007812 -8.84765625 3.37890625 C-7.92855469 3.10949219 -7.00945312 2.84007812 -6.0625 2.5625 C-4.68771484 2.16224609 -4.68771484 2.16224609 -3.28515625 1.75390625 C-1.0597507 1.20973949 -1.0597507 1.20973949 0 0 Z " fill="#737372" transform="translate(482,495)"/>
<path d="M0 0 C9.59453303 1.74259681 9.59453303 1.74259681 13 5 C8.02693484 4.50269348 4.36200187 3.44697666 0 1 C0 0.67 0 0.34 0 0 Z " fill="#5D5D5D" transform="translate(218,366)"/>
<path d="M0 0 C6.10642479 -0.78287497 10.00459579 1.89174849 15 5 C13 6 13 6 9.9609375 5.00390625 C8.77757812 4.52824219 7.59421875 4.05257812 6.375 3.5625 C5.18648438 3.08941406 3.99796875 2.61632812 2.7734375 2.12890625 C1.85820312 1.75636719 0.94296875 1.38382813 0 1 C0 0.67 0 0.34 0 0 Z " fill="#1D1D1D" transform="translate(304,155)"/>
<path d="M0 0 C-1.40844718 3.21524305 -3.10344786 5.32183868 -5.625 7.75 C-6.57246094 8.67039062 -6.57246094 8.67039062 -7.5390625 9.609375 C-8.02117187 10.06828125 -8.50328125 10.5271875 -9 11 C-9 7.25983417 -8.0658409 6.54723807 -5.625 3.8125 C-4.99851562 3.09707031 -4.37203125 2.38164062 -3.7265625 1.64453125 C-2 0 -2 0 0 0 Z " fill="#302F2F" transform="translate(86,460)"/>
<path d="M0 0 C-3.7559214 3.42931954 -8.23466745 4.56429083 -13 6 C-9.07646978 1.95173327 -5.84080115 -0.5006401 0 0 Z " fill="#4B4948" transform="translate(219,418)"/>
<path d="M0 0 C0.33 0.66 0.66 1.32 1 2 C-0.21484375 4.8203125 -0.21484375 4.8203125 -1.9375 8.125 C-2.50339844 9.22070312 -3.06929687 10.31640625 -3.65234375 11.4453125 C-4.09707031 12.28835937 -4.54179687 13.13140625 -5 14 C-5.33 14 -5.66 14 -6 14 C-6.36539443 9.71422781 -5.48423598 7.65507938 -3 4.1875 C-2.1646875 3.00220703 -2.1646875 3.00220703 -1.3125 1.79296875 C-0.879375 1.20128906 -0.44625 0.60960937 0 0 Z " fill="#212121" transform="translate(173,203)"/>
<path d="M0 0 C0.66 0.33 1.32 0.66 2 1 C-2.30769231 6.78461538 -2.30769231 6.78461538 -5.8125 7.875 C-6.8953125 7.936875 -6.8953125 7.936875 -8 8 C-5.33333333 5.33333333 -2.66666667 2.66666667 0 0 Z " fill="#4D4C4A" transform="translate(202,170)"/>
<path d="M0 0 C0.66 0 1.32 0 2 0 C2.33 2.31 2.66 4.62 3 7 C0.03 6.505 0.03 6.505 -3 6 C-3 5.34 -3 4.68 -3 4 C-2.01 4 -1.02 4 0 4 C0 2.68 0 1.36 0 0 Z " fill="#727070" transform="translate(73,152)"/>
<path d="M0 0 C0.66 0.33 1.32 0.66 2 1 C-1.32307692 5.8 -1.32307692 5.8 -4.75 6.8125 C-5.4925 6.874375 -6.235 6.93625 -7 7 C-5.66667905 3.00003714 -3.5042173 2.16217663 0 0 Z " fill="#575655" transform="translate(63,372)"/>
<path d="M0 0 C0.66 0 1.32 0 2 0 C2 0.99 2 1.98 2 3 C2.9590625 3.3403125 2.9590625 3.3403125 3.9375 3.6875 C6 5 6 5 6.75 7.625 C6.8325 8.40875 6.915 9.1925 7 10 C3.60582235 6.87378374 1.3937282 4.43458973 0 0 Z " fill="#646463" transform="translate(353,185)"/>
<path d="M0 0 C0.66 0 1.32 0 2 0 C1.6875 2.375 1.6875 2.375 1 5 C0.01 5.66 -0.98 6.32 -2 7 C-2.99 6.67 -3.98 6.34 -5 6 C-3.38405168 3.95880212 -1.7143618 1.95927063 0 0 Z " fill="#515050" transform="translate(474,141)"/>
<path d="M0 0 C0.95465783 2.16967689 1.14401212 3.56328793 0.3984375 5.82421875 C-0.35870385 7.5684743 -1.17609198 9.28627131 -2 11 C-2.66 11 -3.32 11 -4 11 C-3.5247412 9.35303396 -3.04468109 7.70745272 -2.5625 6.0625 C-2.29566406 5.14597656 -2.02882813 4.22945313 -1.75390625 3.28515625 C-1 1 -1 1 0 0 Z " fill="#686767" transform="translate(11,76)"/>
<path d="M0 0 C4.75 0.75 4.75 0.75 7 3 C7 3.99 7 4.98 7 6 C3.63279613 4.60667426 2.0140476 3.0210714 0 0 Z " fill="#5C5C59" transform="translate(489,429)"/>
<path d="M0 0 C0 0.99 0 1.98 0 3 C-2.93026082 5.7349101 -5.17727085 7.72575695 -9 9 C-7.48328036 4.44984107 -3.83108947 2.49942736 0 0 Z " fill="#6E6E6E" transform="translate(353,341)"/>
<path d="M0 0 C0 0.99 0 1.98 0 3 C-4.455 4.485 -4.455 4.485 -9 6 C-8 3 -8 3 -5.0625 1.3125 C-2 0 -2 0 0 0 Z " fill="#C4C3C3" transform="translate(407,69)"/>
<path d="M0 0 C3.78786597 0.5260925 6.17152224 1.38103911 9 4 C9 4.66 9 5.32 9 6 C5.06326356 4.68775452 2.77280706 3.08089673 0 0 Z " fill="#8C8C89" transform="translate(439,491)"/>
<path d="M0 0 C0.66 0.33 1.32 0.66 2 1 C-0.06756277 3.7972908 -1.14440371 4.02692273 -4.6875 4.6875 C-5.780625 4.790625 -6.87375 4.89375 -8 5 C-5.45378681 2.99940392 -3.01962385 1.20784954 0 0 Z " fill="#999797" transform="translate(156,445)"/>
<path d="M0 0 C5.57142857 5.14285714 5.57142857 5.14285714 6 9 C1.2 5.67692308 1.2 5.67692308 0.1875 2.25 C0.125625 1.5075 0.06375 0.765 0 0 Z " fill="#343434" transform="translate(182,334)"/>
<path d="M0 0 C0 0.66 0 1.32 0 2 C-3.3 3.32 -6.6 4.64 -10 6 C-9.67 5.01 -9.34 4.02 -9 3 C-2.88888889 0 -2.88888889 0 0 0 Z " fill="#ADABAA" transform="translate(327,108)"/>
<path d="M0 0 C0.66 0.33 1.32 0.66 2 1 C0.35 2.65 -1.3 4.3 -3 6 C-3.66 5.67 -4.32 5.34 -5 5 C-4 2 -4 2 -2.0625 0.75 C-1.381875 0.5025 -0.70125 0.255 0 0 Z " fill="#E0DFDE" transform="translate(482,32)"/>
<path d="M0 0 C0.66 0.33 1.32 0.66 2 1 C-2.75 5.875 -2.75 5.875 -5 7 C-4.60196439 4.11424181 -4.20990931 3.17810487 -1.9375 1.25 C-1.298125 0.8375 -0.65875 0.425 0 0 Z " fill="#636261" transform="translate(91,454)"/>
<path d="M0 0 C3.68754757 0.49831724 5.60490662 1.10067643 8 4 C7.67 4.99 7.34 5.98 7 7 C5.83040013 6.02433888 4.66438823 5.044375 3.5 4.0625 C2.8503125 3.51722656 2.200625 2.97195312 1.53125 2.41015625 C1.0259375 1.94480469 0.520625 1.47945312 0 1 C0 0.67 0 0.34 0 0 Z " fill="#2F2E2D" transform="translate(97,213)"/>
<path d="M0 0 C0.33 0.66 0.66 1.32 1 2 C-0.4098361 6.2295083 -3.16421847 7.08210924 -7 9 C-5.44499019 5.18315774 -2.96404505 2.80804268 0 0 Z " fill="#656463" transform="translate(402,118)"/>
<path d="M0 0 C0.66 0.33 1.32 0.66 2 1 C1.67 1.66 1.34 2.32 1 3 C0.01 3 -0.98 3 -2 3 C-2 3.66 -2 4.32 -2 5 C-3.98 5.33 -5.96 5.66 -8 6 C-5.38485683 3.87961365 -2.80362384 1.86908256 0 0 Z " fill="#B1B0AF" transform="translate(210,81)"/>
<path d="M0 0 C2.18975773 3.28463659 2.99806563 6.20696275 4 10 C3.01 9.67 2.02 9.34 1 9 C0.67 6.03 0.34 3.06 0 0 Z " fill="#474746" transform="translate(416,206)"/>
<path d="M0 0 C0.99 0.33 1.98 0.66 3 1 C1.02 2.98 -0.96 4.96 -3 7 C-3.66 6.67 -4.32 6.34 -5 6 C-3.35 4.02 -1.7 2.04 0 0 Z " fill="#262525" transform="translate(433,180)"/>
<path d="M0 0 C0.33 0 0.66 0 1 0 C1 1.65 1 3.3 1 5 C-1.64 4.67 -4.28 4.34 -7 4 C-7 3.01 -7 2.02 -7 1 C-5.02 1.66 -3.04 2.32 -1 3 C-0.67 2.01 -0.34 1.02 0 0 Z " fill="#B2B1B0" transform="translate(64,166)"/>
<path d="M0 0 C-1.28524261 0.86380259 -2.57842419 1.71580369 -3.875 2.5625 C-4.59429687 3.03816406 -5.31359375 3.51382813 -6.0546875 4.00390625 C-6.69664062 4.33261719 -7.33859375 4.66132813 -8 5 C-8.66 4.67 -9.32 4.34 -10 4 C-7.6604297 0.49064455 -4.21379901 -2.1068995 0 0 Z " fill="#272726" transform="translate(222,161)"/>
<path d="M0 0 C2.97 0.495 2.97 0.495 6 1 C4.68 1.33 3.36 1.66 2 2 C2 3.98 2 5.96 2 8 C1.01 7.67 0.02 7.34 -1 7 C-0.34 7 0.32 7 1 7 C0.67 4.69 0.34 2.38 0 0 Z " fill="#979695" transform="translate(95,86)"/>
<path d="M0 0 C0.33 0.99 0.66 1.98 1 3 C-0.32 4.32 -1.64 5.64 -3 7 C-3.99 6.67 -4.98 6.34 -6 6 C-4.02 4.02 -2.04 2.04 0 0 Z " fill="#4D4C4B" transform="translate(456,62)"/>
<path d="M0 0 C2.31 1.98 4.62 3.96 7 6 C6.67 6.66 6.34 7.32 6 8 C1.3125 4.38671875 1.3125 4.38671875 0 3 C0 2.01 0 1.02 0 0 Z " fill="#979795" transform="translate(411,456)"/>
<path d="M0 0 C-3.8503105 2.56687367 -5.58569763 1.83288724 -10 1 C-10 0.67 -10 0.34 -10 0 C-6.33694766 -0.74926071 -3.57644848 -1.2380014 0 0 Z " fill="#8F8D8D" transform="translate(300,417)"/>
<path d="M0 0 C-5.75 4 -5.75 4 -8 4 C-7 1 -7 1 -4.5625 -0.25 C-2 -1 -2 -1 0 0 Z " fill="#747373" transform="translate(334,406)"/>
<path d="M0 0 C3.77545388 1.09068668 6.47043472 1.9083091 9 5 C7.68428397 4.7452486 6.37239624 4.47065859 5.0625 4.1875 C4.33160156 4.03667969 3.60070312 3.88585937 2.84765625 3.73046875 C2.23792969 3.48941406 1.62820312 3.24835938 1 3 C0.67 2.01 0.34 1.02 0 0 Z " fill="#393939" transform="translate(213,362)"/>
<path d="M0 0 C0 0.66 0 1.32 0 2 C-1.96147874 3.38938077 -3.96166576 4.7260411 -6 6 C-6.66 5.67 -7.32 5.34 -8 5 C-3.16129032 0 -3.16129032 0 0 0 Z " fill="#6D6D6C" transform="translate(335,357)"/>
</svg>
